<svg width="311" height="302" viewBox="0 0 311 302" fill="none" xmlns="http://www.w3.org/2000/svg">
<path d="M86.0628 178.168C84.8851 183.159 83.3562 187.13 81.9788 191.952C103.321 188.608 124.509 189.297 146.153 185.947C129.886 162.868 115.66 153.416 121.111 121.133C123.669 105.984 133.15 76.8747 125.827 63.053C117.483 47.3061 106.15 52.6032 107.863 37.6117C110.539 14.1802 97.1318 -9.02958 66.8147 3.53113C36.8929 15.928 46.0608 99.4988 65.8067 120.644C79.0035 142.004 92.2121 152.108 86.0628 178.168Z" fill="url(#paint0_linear_1137_10616)"/>
<path d="M114.976 186.297C112.626 179.71 109.649 173.203 106.77 166.91L105.681 164.527C103.375 159.468 101.416 154.907 99.6876 150.883C98.7154 148.619 97.7969 146.481 96.8871 144.414C94.1188 138.125 92.1637 133.72 91.1843 131.513C90.848 130.755 90.6265 130.256 90.5267 130.029C82.9076 112.706 79.9234 86.7376 78.3202 72.7864C78.1466 71.2748 77.9913 69.924 77.8501 68.764C75.4256 48.8386 70.1431 28.3563 62.1494 7.88637L62.4691 7.79297C70.4707 28.2834 75.7585 48.7866 78.1858 68.7336C78.3269 69.8939 78.4823 71.2454 78.656 72.7575C80.2577 86.6953 83.2391 112.639 90.8422 129.925C90.9419 130.152 91.1632 130.651 91.4994 131.408C92.479 133.616 94.4341 138.021 97.2026 144.31C98.113 146.378 99.0316 148.517 100.004 150.781C101.732 154.804 103.69 159.364 105.995 164.42L107.084 166.802C109.965 173.1 112.945 179.613 115.299 186.211L114.976 186.297Z" fill="#FCFDFE"/>
<path d="M100.592 154.362C96.1886 142.711 96.4442 127.49 101.332 110.344C105.403 96.0597 112.627 80.9191 121.15 68.8047L121.438 68.9562C112.932 81.0466 105.723 96.1573 101.659 110.414C96.787 127.507 96.5291 142.673 100.913 154.271L100.592 154.362Z" fill="#FCFDFE"/>
<path d="M78.891 75.0796L78.5576 75.0352C80.4251 64.5569 83.8356 54.2198 87.134 44.2234C89.3919 37.3799 91.7268 30.3034 93.5484 23.2383L93.8779 23.302C92.0541 30.3753 89.7179 37.4559 87.4586 44.3034C84.163 54.2915 80.7554 64.6193 78.891 75.0796Z" fill="#FCFDFE"/>
<path d="M83.9895 109.085C75.9345 96.0756 58.3253 81.8151 46.3057 78.5676L46.4063 78.2891C58.4962 81.5555 76.1973 95.8817 84.2869 108.947L83.9895 109.085Z" fill="#FCFDFE"/>
<path d="M68.2271 109.037C74.1821 137.875 90.817 131.604 112.404 124.526C108.789 151.711 106.27 178.315 103.807 205.322C89.2889 209.845 78.8059 212.814 70.5848 196.284C61.2868 177.59 56.5409 166.493 33.9969 161.967C11.4529 157.441 -5.68269 140.949 1.76604 119.201C9.6047 96.3145 -10.2659 66.6395 8.81878 49.9215C42.0727 20.7911 62.0262 79.0087 68.2271 109.037Z" fill="url(#paint1_linear_1137_10616)"/>
<path d="M101.77 174.529C81.5794 164.927 65.0258 156.371 51.0719 141.14C37.7203 126.567 31.164 110.841 29.1495 88.5568C28.1043 76.9949 26.0326 68.828 22.9912 57.688L23.2855 57.6094C26.331 68.7648 28.4055 76.9437 29.453 88.53C31.4611 110.744 37.9941 126.418 51.2978 140.938C65.2147 156.128 81.7421 164.67 101.902 174.258L101.77 174.529Z" fill="#FCFDFE"/>
<path d="M76.2768 206.588L76.04 206.399C80.6843 200.743 85.692 196.142 91.349 192.332C94.241 190.384 97.2074 189.06 100.772 187.672L100.884 187.952C97.3382 189.333 94.3892 190.649 91.5206 192.581C85.8885 196.374 80.9022 200.956 76.2768 206.588Z" fill="#FCFDFE"/>
<path d="M60.1002 149.912C44.8456 142.622 25.9183 140.907 6.80494 145.081L6.73926 144.787C25.919 140.598 44.9168 142.322 60.233 149.641L60.1002 149.912Z" fill="#FCFDFE"/>
<path d="M33.792 112.326C33.5513 110.37 36.1249 93.9994 38.6137 79.3303C41.1127 64.6018 43.9972 48.7814 44.4991 47.8008L44.7712 47.9366C44.3405 48.778 41.7132 62.8834 38.9143 79.38C36.429 94.0282 33.8578 110.366 34.0946 112.29L33.792 112.326Z" fill="#FCFDFE"/>
<path d="M201.636 218.442C197.849 217.186 195.018 213.971 194.219 210.02L188.706 182.734L141.546 184.409L135.742 212.835C134.929 216.816 138.183 220.81 141.93 222.276L161.661 229.996C165.331 231.431 169.276 232.003 173.197 231.668L214.895 228.101C216.114 227.997 217.092 227.038 217.233 225.809C217.375 224.58 218.229 223.2 217.067 222.814L201.636 218.442Z" fill="#97A6B7"/>
<path d="M202.103 216.783C198.319 215.542 195.491 212.368 194.693 208.466L189.186 181.523L143.175 183.179L137.377 211.247C136.565 215.178 138.713 219.12 142.457 220.568L162.168 228.191C165.834 229.609 169.775 230.174 173.692 229.842L215.348 226.32C216.566 226.217 217.542 225.271 217.684 224.057C217.826 222.843 217.093 221.697 215.932 221.317L202.103 216.783Z" fill="url(#paint2_linear_1137_10616)"/>
<path d="M277.414 163.764V41.4161C277.414 38.9075 275.346 36.7716 272.813 36.6698L62.6165 28.2202C59.4178 28.0916 56.793 30.3018 56.793 33.1323V168.346L277.414 163.764Z" fill="url(#paint3_linear_1137_10616)"/>
<path d="M63.2939 51.9492V157.57C63.2939 160.206 65.7309 162.294 68.7011 162.21L268.19 156.536C270.571 156.469 272.514 154.49 272.514 152.138V57.9365L63.2939 51.9492Z" fill="white"/>
<path d="M272.515 57.9384V47.1276C272.515 44.8246 270.611 42.869 268.279 42.782L68.5908 35.3323C65.6811 35.2238 63.2939 37.2476 63.2939 39.8299V51.9512L272.515 57.9384Z" fill="url(#paint4_linear_1137_10616)"/>
<path d="M77.8914 43.727C77.8914 44.6347 77.0643 45.3443 76.0425 45.312C75.0192 45.2797 74.1885 44.5156 74.1885 43.6054C74.1885 42.6952 75.0192 41.9859 76.0425 42.0208C77.0643 42.0556 77.8914 42.8195 77.8914 43.727Z" fill="#010D0F"/>
<path d="M85.8608 43.9902C85.8608 44.8925 85.0433 45.5981 84.0335 45.5661C83.0221 45.5342 82.2012 44.7748 82.2012 43.87C82.2012 42.9652 83.022 42.2598 84.0335 42.2942C85.0433 42.3287 85.8608 43.0878 85.8608 43.9902Z" fill="#010D0F"/>
<path d="M93.7382 44.2455C93.7382 45.1426 92.9301 45.8442 91.9321 45.8127C90.9325 45.7811 90.1211 45.0262 90.1211 44.1268C90.1211 43.2272 90.9325 42.5257 91.9321 42.5598C92.9303 42.5937 93.7382 43.3485 93.7382 44.2455Z" fill="#010D0F"/>
<path d="M56.793 168.347V195.35C56.793 198.181 59.4178 200.385 62.6165 200.25L272.813 191.364C275.346 191.256 277.414 189.117 277.414 186.608V162.98L56.793 168.347Z" fill="url(#paint5_linear_1137_10616)"/>
<path d="M194.518 111.144L78.6113 111.772V63.375L194.518 65.4836V111.144Z" fill="url(#paint6_linear_1137_10616)"/>
<path d="M259.968 110.791L201.318 111.109V65.6094L259.968 66.6763V110.791Z" fill="url(#paint7_linear_1137_10616)"/>
<path d="M259.968 143.535L78.6113 147.696V118.093L259.968 116.551V143.535Z" fill="url(#paint8_linear_1137_10616)"/>
<g opacity="0.48">
<path opacity="0.48" d="M254.648 147.968C237.384 142.137 223.102 154.031 210.692 144.666C196.702 134.109 208.01 113.826 195.069 101.877C177.092 85.2779 141.151 111.02 125.542 95.3715C114.81 84.6126 127.47 67.3876 118.382 49.2684C113.761 40.0557 105.103 33.7748 94.5934 29.5056L62.6172 28.2202C59.4187 28.0916 56.7939 30.3018 56.7939 33.1323V168.346V195.349C56.7939 198.179 59.4188 200.384 62.6172 200.249L272.813 191.363C275.347 191.255 277.415 189.115 277.415 186.607V169.147C270.013 156.061 261.841 150.398 254.648 147.968Z" fill="white"/>
</g>
<path d="M116.548 146.48V288.02C116.548 290.137 114.232 290.758 111.605 291.012L20.7351 301.174L19.3463 301.309C16.4951 301.586 14.1572 300.003 14.1572 297.792V149.888C14.1572 147.676 16.4951 145.793 19.3463 145.703L21.2311 145.643L112.422 145.942C115.049 145.858 116.548 144.363 116.548 146.48Z" fill="url(#paint9_linear_1137_10616)"/>
<path d="M119.35 146.321V287.822C119.35 289.938 117.206 291.878 114.581 292.133L22.2018 301.106C19.3522 301.383 17.0156 299.8 17.0156 297.589V149.726C17.0156 147.515 19.3522 145.632 22.2018 145.542L114.581 142.624C117.206 142.541 119.35 144.205 119.35 146.321Z" fill="url(#paint10_linear_1137_10616)"/>
<path d="M24.2079 153.908L112.266 150.834C114.507 150.756 116.368 152.551 116.37 154.794L116.535 284.715C116.538 287.154 114.687 289.196 112.259 289.432L24.4615 297.951C22.2193 298.169 20.2775 296.406 20.277 294.154L20.2432 158.014C20.2427 155.801 21.9959 153.985 24.2079 153.908Z" fill="white"/>
<path d="M27.1943 186.298L77.3054 183.887L77.3409 230.826L27.2094 234.276L27.1943 186.298Z" fill="url(#paint11_linear_1137_10616)"/>
<path d="M27.2119 240.316L110.058 234.398L110.088 262.601L27.221 269.566L27.2119 240.316Z" fill="url(#paint12_linear_1137_10616)"/>
<path d="M24.5638 153.82L112.227 150.834C114.503 150.757 116.391 152.579 116.394 154.857L116.415 174.187L20.2473 178.476L20.2422 158.292C20.2415 155.88 22.1532 153.902 24.5638 153.82Z" fill="url(#paint13_linear_1137_10616)"/>
<path d="M27.2227 276.029L110.094 268.832L110.107 281.552L27.2267 289.222L27.2227 276.029Z" fill="url(#paint14_linear_1137_10616)"/>
<path d="M81.9238 183.663L110.004 182.312L110.053 228.573L81.9612 230.507L81.9238 183.663Z" fill="url(#paint15_linear_1137_10616)"/>
<path d="M71.0222 148.364C71.0222 149.113 70.2547 149.746 69.3073 149.778C68.3591 149.811 67.5898 149.229 67.5898 148.479C67.5898 147.728 68.3591 147.095 69.3073 147.064C70.2547 147.033 71.0222 147.615 71.0222 148.364Z" fill="#DE8BDF"/>
<g opacity="0.48">
<path opacity="0.48" d="M89.4879 227.746C81.0832 210.88 61.4413 214.906 54.0626 196.512C49.6609 185.539 55.1403 180.336 51.8405 166.95C49.6075 157.891 44.7316 150.672 39.2075 145.004L22.2017 145.541C19.3523 145.631 17.0156 147.514 17.0156 149.725V297.588C17.0156 299.8 19.3523 301.382 22.2017 301.105L96.5429 293.884C91.0381 286.235 88.682 279.04 87.8325 272.798C85.1983 253.437 96.953 242.726 89.4879 227.746Z" fill="white"/>
</g>
<path d="M155.965 195.135V292.816C155.965 294.277 154.717 294.681 153.301 294.829L104.536 300.867L103.794 300.945C102.27 301.105 101.021 299.993 101.021 298.473V196.862C101.021 195.343 102.27 194.063 103.794 194.018L104.801 193.988L153.741 194.739C155.157 194.697 155.965 193.674 155.965 195.135Z" fill="url(#paint16_linear_1137_10616)"/>
<path d="M157.476 195.042V292.708C157.476 294.168 156.32 295.485 154.905 295.633L105.321 300.835C103.797 300.995 102.549 299.883 102.549 298.364V196.768C102.549 195.249 103.797 193.969 105.321 193.924L154.905 192.462C156.32 192.42 157.476 193.581 157.476 195.042Z" fill="url(#paint17_linear_1137_10616)"/>
<path d="M106.967 199.675L150.338 198.09C153.368 197.979 155.884 200.405 155.884 203.437L155.879 290.948C155.879 292.38 154.798 293.582 153.372 293.732L106.911 298.622C105.5 298.77 104.272 297.664 104.272 296.246L104.27 202.473C104.27 200.967 105.462 199.73 106.967 199.675Z" fill="white"/>
<path d="M109.666 222.983L135.223 221.633L135.223 254.167L109.666 256.106L109.666 222.983Z" fill="url(#paint18_linear_1137_10616)"/>
<path d="M109.666 260.273L150.828 257.031L150.827 276.63L109.666 280.449L109.666 260.273Z" fill="url(#paint19_linear_1137_10616)"/>
<path d="M109.667 284.007L150.827 280.086L150.827 288.921L109.667 293.103L109.667 284.007Z" fill="url(#paint20_linear_1137_10616)"/>
<path d="M137.972 221.488L150.83 220.809L150.829 252.983L137.971 253.959L137.972 221.488Z" fill="url(#paint21_linear_1137_10616)"/>
<path d="M106.759 199.687L153.085 197.994C154.615 197.938 155.885 199.163 155.884 200.693L155.884 214.234L104.27 216.727L104.27 202.27C104.27 200.879 105.37 199.738 106.759 199.687Z" fill="url(#paint22_linear_1137_10616)"/>
<path d="M131.474 196.156C131.474 196.672 131.062 197.103 130.554 197.12C130.045 197.136 129.632 196.731 129.632 196.214C129.632 195.698 130.045 195.266 130.554 195.25C131.062 195.235 131.474 195.64 131.474 196.156Z" fill="#DE8BDF"/>
<g opacity="0.48">
<path opacity="0.48" d="M141.357 253.538C136.832 242.163 124.635 244.85 120.836 233.353C117.735 223.969 124.633 218.47 121.932 207.605C120.417 201.508 116.689 196.979 112.877 193.703L105.321 193.926C103.797 193.971 102.549 195.251 102.549 196.77V298.366C102.549 299.885 103.797 300.997 105.321 300.837L143.335 296.849C140.284 292.039 139.058 287.645 138.625 283.995C137.049 270.713 145.502 263.96 141.357 253.538Z" fill="white"/>
</g>
<path d="M242.983 269.405L298.667 255.477L301.453 269.005L250.475 292.533L210.111 282.562L185.762 258.655L242.983 269.405Z" fill="url(#paint23_linear_1137_10616)"/>
<path d="M242.983 269.405L298.667 255.477L301.453 269.005L250.475 292.533L210.111 282.562L185.762 258.655L242.983 269.405Z" fill="url(#paint24_linear_1137_10616)"/>
<path d="M241.233 288.129C252.301 282.196 260.475 276.152 266.023 271.585C276.939 262.597 281.947 255.817 292.999 253.137C294.974 252.659 306.227 249.931 309.858 254.928C313.879 260.461 306.062 272.03 305.113 273.435C290.993 294.335 255.038 293.359 243.759 292.682C242.917 291.164 242.075 289.647 241.233 288.129Z" fill="url(#paint25_linear_1137_10616)"/>
<path opacity="0.3" d="M309.858 254.927C308.797 253.467 307.078 252.679 305.136 252.289C305.782 254.526 305.841 256.625 305.034 258.458C302.828 263.47 296.294 261.927 291.705 267.808C287.198 273.585 290.318 279.152 286.334 281.535C281.768 284.265 276.107 277.886 271.215 280.938C267.889 283.013 268.924 286.95 265.048 289.094C262.37 290.576 259.744 289.875 256.693 289.492C253.196 289.052 248.405 288.959 242.391 290.215C242.847 291.037 243.303 291.859 243.759 292.681C255.037 293.359 290.993 294.334 305.112 273.435C306.062 272.029 313.879 260.46 309.858 254.927Z" fill="url(#paint26_linear_1137_10616)"/>
<path d="M249.6 291.254C249.6 291.254 251.628 289.8 254.571 290.791C257.513 291.782 262.186 292.582 262.179 294.021C262.172 295.46 257.497 296.36 254.266 295.769C251.175 295.203 248.745 292.517 249.6 291.254Z" fill="url(#paint27_linear_1137_10616)"/>
<path d="M246.629 288.797L252.044 290.539C252.044 290.539 252.924 292.004 251.737 292.934C250.55 293.863 246.424 291.898 246.424 291.898L246.629 288.797Z" fill="url(#paint28_linear_1137_10616)"/>
<path d="M171.351 263.833C169.752 273.143 189.846 283.215 194.446 285.521C203.821 290.22 221.461 296.853 247.641 294.319C247.99 292.23 248.338 290.141 248.686 288.052C245.227 286.868 240.102 284.942 234.155 282.016C224.005 277.024 220.151 273.458 206.066 264.943C190.481 255.52 185.941 254.311 181.298 255.477C177.327 256.474 172.094 259.506 171.351 263.833Z" fill="url(#paint29_linear_1137_10616)"/>
<path d="M192.289 246.128C188.893 233.843 194.499 217.268 206.314 209.275C215.957 202.752 227.257 203.175 230.783 203.307C234.642 203.452 234.244 203.953 246.393 206.201C263.26 209.322 264.817 208.565 269.724 210.917C278.95 215.338 283.426 223.372 284.264 224.935C288.551 232.935 292.041 247.807 283.898 255.08C279.268 259.214 272.779 259.197 269.127 258.81C268.878 257.168 268.63 255.527 268.381 253.886C269.124 253.31 273.509 249.796 274.05 243.591C274.673 236.461 269.689 231.858 269.127 231.357C267.359 234.77 265.183 239.951 264.203 246.575C262.938 255.129 264.248 262.163 265.358 266.299C260.897 268.747 253.521 272.07 243.912 273.133C236.673 273.933 227.71 274.925 221.98 270.447C213.894 264.128 213.211 247.672 221.196 230.544C218.273 232.502 214.039 236.044 212.282 241.652C212.016 242.5 211.567 244.163 211.387 250.604C211.064 262.175 195.809 258.858 192.289 246.128Z" fill="url(#paint30_linear_1137_10616)"/>
<path opacity="0.3" d="M247.045 254.629C242.976 255.128 241.869 259.352 238.093 259.105C229.877 258.567 223.284 244.344 226.754 236.576C229.016 231.51 234.914 230.627 234.512 227.325C234.19 224.683 230.097 222.65 226.754 222.551C221.549 222.396 218.113 226.929 216.907 228.519C214.088 232.235 213.481 236.316 213.417 238.941C215.485 234.884 218.779 232.159 221.196 230.541C213.21 247.669 213.893 264.125 221.979 270.444C227.71 274.922 236.673 273.93 243.912 273.129C251.71 272.266 258.038 269.915 262.53 267.751C258.165 260.646 252.605 253.947 247.045 254.629Z" fill="url(#paint31_linear_1137_10616)"/>
<path d="M261.224 266.218L213.613 265.508L226.274 271.618L261.346 269.323L261.224 266.218Z" fill="url(#paint32_linear_1137_10616)"/>
<path d="M211.934 266.774V266.774C211.934 267.666 212.491 268.461 213.328 268.766L228.542 274.73L228.611 270.595L213.614 265.509C212.772 265.267 211.934 265.899 211.934 266.774Z" fill="#D8DEE8"/>
<path d="M194.591 237.94C198.265 234.463 207.278 236.653 210.64 241.65C213.116 245.328 211.067 248.355 212.878 252.989C215.097 258.666 223.467 263.799 228.611 265.507C227.806 267.241 228.043 267.69 227.238 269.423C223.966 269.015 200.313 265.391 194.527 251.348C194.225 250.616 190.651 241.669 194.591 237.94Z" fill="url(#paint33_linear_1137_10616)"/>
<path d="M248.28 201.277C248.28 201.277 244.429 205.441 241.233 205.874C238.037 206.308 233.418 205.459 232.622 205.874C231.827 206.29 236.636 208.001 240.451 209.047C244.266 210.094 251.192 212.184 253.107 211.726C255.022 211.268 251.014 208.813 249.427 208.162C247.84 207.511 250.112 204.168 250.112 204.168L248.28 201.277Z" fill="url(#paint34_linear_1137_10616)"/>
<path d="M253.991 203.662C255.384 203.278 256.656 201.715 256.64 200.095C256.626 198.702 255.648 197.751 255.062 197.181C253.365 195.531 250.416 194.498 248.277 195.583C247.01 196.226 246.432 199.144 246.304 199.65C246.159 200.222 246.382 200.629 246.444 201.193C246.529 201.976 246.654 203.213 246.836 205.259C247.194 204.972 247.661 204.636 248.233 204.321C248.454 204.2 249.323 203.735 250.262 203.517C252.145 203.081 252.672 204.026 253.991 203.662Z" fill="url(#paint35_linear_1137_10616)"/>
<path d="M246.038 203.042C246.038 203.042 245.715 205.994 248.275 207.714C250.568 209.253 254.658 204.604 254.064 202.491C253.866 201.786 253.045 200.925 252.124 200.554C251.58 200.334 251.286 200.403 250.404 200.028C249.591 199.681 249.457 199.459 249.119 199.473C248.698 199.492 248.103 199.875 247.428 201.636C247.336 200.893 246.961 200.346 246.478 200.241C246.401 200.224 246.173 200.21 245.969 200.3C245.234 200.624 245.194 201.731 246.038 203.042Z" fill="url(#paint36_linear_1137_10616)"/>
<path d="M249.247 199.101C249.291 199.261 248.667 199.406 248.215 199.943C247.337 200.986 247.431 203.123 248.461 204.091C249.07 204.663 249.557 204.406 250.734 205.13C251.463 205.578 251.959 206.096 252.252 206.445C251.683 207.892 250.452 208.824 249.239 208.762C247.933 208.695 247.121 207.5 246.781 207C246.554 206.666 245.824 205.596 246.004 204.309C246.19 202.969 247.144 202.809 247.02 201.709C246.958 201.155 246.66 200.706 246.742 199.788C246.764 199.539 246.806 199.336 246.84 199.203C247.863 199.04 249.182 198.87 249.247 199.101Z" fill="url(#paint37_linear_1137_10616)"/>
<path d="M251.121 206.275C251.121 206.275 250.46 206.158 249.681 205.485C249.643 205.452 249.59 205.431 249.569 205.447C249.491 205.51 249.747 206.259 250.333 206.495C250.749 206.662 251.264 206.543 251.282 206.425C251.289 206.375 251.208 206.32 251.121 206.275Z" fill="url(#paint38_linear_1137_10616)"/>
<path d="M229.874 241.582L226.518 272.139C226.402 273.193 227.879 274.764 228.938 274.714L278.171 271.691C278.98 271.653 279.653 271.058 279.79 270.259L285.97 240.747C286.154 239.673 284.223 238.564 283.134 238.594L231.541 240.045C230.68 240.069 229.968 240.725 229.874 241.582Z" fill="#D8DEE8"/>
<path d="M230.999 242.473L227.643 273.029C227.527 274.084 228.381 274.992 229.441 274.942L279.296 272.582C280.105 272.544 280.778 271.948 280.915 271.15L286.009 241.503C286.193 240.429 285.348 239.455 284.259 239.485L232.666 240.936C231.805 240.96 231.093 241.616 230.999 242.473Z" fill="white"/>
<path d="M260.274 265.423C255.921 263.578 257.457 260.06 252.317 255.676C245.535 249.892 238.623 252.4 236.203 247.917C235.45 246.521 235.09 244.348 236.402 240.832L232.666 240.937C231.805 240.961 231.093 241.617 230.999 242.474L227.643 273.031C227.528 274.085 228.381 274.994 229.441 274.944L279.296 272.583C280.105 272.545 280.778 271.95 280.915 271.152L281.618 267.06C280.105 266.219 278.298 265.453 276.189 265.025C268.875 263.542 265.286 267.547 260.274 265.423Z" fill="url(#paint39_linear_1137_10616)"/>
<defs>
<linearGradient id="paint0_linear_1137_10616" x1="150.987" y1="234.699" x2="8.73159" y2="-89.6815" gradientUnits="userSpaceOnUse">
<stop stop-color="#AA80F9"/>
<stop offset="0.9964" stop-color="#6165D7"/>
</linearGradient>
<linearGradient id="paint1_linear_1137_10616" x1="-6.41466e-05" y1="125.427" x2="112.404" y2="125.427" gradientUnits="userSpaceOnUse">
<stop offset="0.0036" stop-color="#E38DDD"/>
<stop offset="1" stop-color="#9571F6"/>
</linearGradient>
<linearGradient id="paint2_linear_1137_10616" x1="176.762" y1="192.44" x2="177.479" y2="219.322" gradientUnits="userSpaceOnUse">
<stop stop-color="#444B8C"/>
<stop offset="0.9964" stop-color="#26264F"/>
</linearGradient>
<linearGradient id="paint3_linear_1137_10616" x1="182.615" y1="159.021" x2="103.62" y2="-118.315" gradientUnits="userSpaceOnUse">
<stop stop-color="#444B8C"/>
<stop offset="0.9964" stop-color="#26264F"/>
</linearGradient>
<linearGradient id="paint4_linear_1137_10616" x1="103.61" y1="-20.325" x2="247.575" y2="134.242" gradientUnits="userSpaceOnUse">
<stop stop-color="#026B7C"/>
<stop offset="1" stop-color="#0CDBE6"/>
</linearGradient>
<linearGradient id="paint5_linear_1137_10616" x1="56.7929" y1="181.618" x2="277.414" y2="181.618" gradientUnits="userSpaceOnUse">
<stop stop-color="#444B8C"/>
<stop offset="0.9964" stop-color="#26264F"/>
</linearGradient>
<linearGradient id="paint6_linear_1137_10616" x1="125.467" y1="64.5728" x2="188.519" y2="201.243" gradientUnits="userSpaceOnUse">
<stop stop-color="#FFC444"/>
<stop offset="0.9964" stop-color="#F36F56"/>
</linearGradient>
<linearGradient id="paint7_linear_1137_10616" x1="205.398" y1="34.1715" x2="263.522" y2="160.161" gradientUnits="userSpaceOnUse">
<stop stop-color="#FFC444"/>
<stop offset="0.9964" stop-color="#F36F56"/>
</linearGradient>
<linearGradient id="paint8_linear_1137_10616" x1="135.932" y1="59.8184" x2="196.288" y2="190.645" gradientUnits="userSpaceOnUse">
<stop stop-color="#FFC444"/>
<stop offset="0.9964" stop-color="#F36F56"/>
</linearGradient>
<linearGradient id="paint9_linear_1137_10616" x1="126.268" y1="274.434" x2="52.5814" y2="211.576" gradientUnits="userSpaceOnUse">
<stop stop-color="#444B8C"/>
<stop offset="0.9964" stop-color="#26264F"/>
</linearGradient>
<linearGradient id="paint10_linear_1137_10616" x1="65.3917" y1="293.807" x2="75.1271" y2="32.095" gradientUnits="userSpaceOnUse">
<stop stop-color="#444B8C"/>
<stop offset="0.9964" stop-color="#26264F"/>
</linearGradient>
<linearGradient id="paint11_linear_1137_10616" x1="37.3276" y1="176.72" x2="75.0085" y2="258.396" gradientUnits="userSpaceOnUse">
<stop stop-color="#FFC444"/>
<stop offset="0.9964" stop-color="#F36F56"/>
</linearGradient>
<linearGradient id="paint12_linear_1137_10616" x1="55.2637" y1="222.989" x2="88.9664" y2="296.042" gradientUnits="userSpaceOnUse">
<stop stop-color="#FFC444"/>
<stop offset="0.9964" stop-color="#F36F56"/>
</linearGradient>
<linearGradient id="paint13_linear_1137_10616" x1="54.0356" y1="135.262" x2="89.1919" y2="211.465" gradientUnits="userSpaceOnUse">
<stop stop-color="#026B7C"/>
<stop offset="1" stop-color="#0CDBE6"/>
</linearGradient>
<linearGradient id="paint14_linear_1137_10616" x1="59.0418" y1="258.178" x2="83.4124" y2="311.003" gradientUnits="userSpaceOnUse">
<stop stop-color="#FFC444"/>
<stop offset="0.9964" stop-color="#F36F56"/>
</linearGradient>
<linearGradient id="paint15_linear_1137_10616" x1="83.2678" y1="178.849" x2="115.505" y2="248.724" gradientUnits="userSpaceOnUse">
<stop stop-color="#FFC444"/>
<stop offset="0.9964" stop-color="#F36F56"/>
</linearGradient>
<linearGradient id="paint16_linear_1137_10616" x1="166.366" y1="279.417" x2="120.474" y2="240.268" gradientUnits="userSpaceOnUse">
<stop stop-color="#444B8C"/>
<stop offset="0.9964" stop-color="#26264F"/>
</linearGradient>
<linearGradient id="paint17_linear_1137_10616" x1="128.12" y1="295.609" x2="134.746" y2="117.489" gradientUnits="userSpaceOnUse">
<stop stop-color="#444B8C"/>
<stop offset="0.9964" stop-color="#26264F"/>
</linearGradient>
<linearGradient id="paint18_linear_1137_10616" x1="112.975" y1="218.343" x2="136.907" y2="270.217" gradientUnits="userSpaceOnUse">
<stop stop-color="#FFC444"/>
<stop offset="0.9964" stop-color="#F36F56"/>
</linearGradient>
<linearGradient id="paint19_linear_1137_10616" x1="122.44" y1="251.819" x2="142.124" y2="294.485" gradientUnits="userSpaceOnUse">
<stop stop-color="#FFC444"/>
<stop offset="0.9964" stop-color="#F36F56"/>
</linearGradient>
<linearGradient id="paint20_linear_1137_10616" x1="124.993" y1="275.205" x2="138.304" y2="304.057" gradientUnits="userSpaceOnUse">
<stop stop-color="#FFC444"/>
<stop offset="0.9964" stop-color="#F36F56"/>
</linearGradient>
<linearGradient id="paint21_linear_1137_10616" x1="136.194" y1="219.596" x2="157.037" y2="264.774" gradientUnits="userSpaceOnUse">
<stop stop-color="#FFC444"/>
<stop offset="0.9964" stop-color="#F36F56"/>
</linearGradient>
<linearGradient id="paint22_linear_1137_10616" x1="121.551" y1="189.93" x2="142.395" y2="235.113" gradientUnits="userSpaceOnUse">
<stop stop-color="#026B7C"/>
<stop offset="1" stop-color="#00E0CF"/>
</linearGradient>
<linearGradient id="paint23_linear_1137_10616" x1="244.241" y1="251.311" x2="243.048" y2="274.884" gradientUnits="userSpaceOnUse">
<stop stop-color="#FF9085"/>
<stop offset="1" stop-color="#FB6FBB"/>
</linearGradient>
<linearGradient id="paint24_linear_1137_10616" x1="244.241" y1="251.311" x2="243.048" y2="274.884" gradientUnits="userSpaceOnUse">
<stop stop-color="#444B8C"/>
<stop offset="0.9964" stop-color="#26264F"/>
</linearGradient>
<linearGradient id="paint25_linear_1137_10616" x1="241.233" y1="272.456" x2="311" y2="272.456" gradientUnits="userSpaceOnUse">
<stop stop-color="#444B8C"/>
<stop offset="0.9964" stop-color="#26264F"/>
</linearGradient>
<linearGradient id="paint26_linear_1137_10616" x1="241.233" y1="272.618" x2="310.999" y2="272.618" gradientUnits="userSpaceOnUse">
<stop stop-color="#FF9085"/>
<stop offset="1" stop-color="#FB6FBB"/>
</linearGradient>
<linearGradient id="paint27_linear_1137_10616" x1="260.989" y1="299.605" x2="247.561" y2="282.895" gradientUnits="userSpaceOnUse">
<stop stop-color="#AA80F9"/>
<stop offset="0.9964" stop-color="#6165D7"/>
</linearGradient>
<linearGradient id="paint28_linear_1137_10616" x1="252.745" y1="295.636" x2="234.245" y2="272.36" gradientUnits="userSpaceOnUse">
<stop stop-color="#FFC444"/>
<stop offset="0.9964" stop-color="#F36F56"/>
</linearGradient>
<linearGradient id="paint29_linear_1137_10616" x1="212.915" y1="271.678" x2="197.543" y2="303.652" gradientUnits="userSpaceOnUse">
<stop stop-color="#444B8C"/>
<stop offset="0.9964" stop-color="#26264F"/>
</linearGradient>
<linearGradient id="paint30_linear_1137_10616" x1="247.376" y1="263.586" x2="229.024" y2="204.801" gradientUnits="userSpaceOnUse">
<stop offset="0.0036" stop-color="#E38DDD"/>
<stop offset="1" stop-color="#9571F6"/>
</linearGradient>
<linearGradient id="paint31_linear_1137_10616" x1="235.606" y1="215.047" x2="238.142" y2="256.076" gradientUnits="userSpaceOnUse">
<stop stop-color="#FF9085"/>
<stop offset="1" stop-color="#FB6FBB"/>
</linearGradient>
<linearGradient id="paint32_linear_1137_10616" x1="213.613" y1="268.563" x2="261.346" y2="268.563" gradientUnits="userSpaceOnUse">
<stop stop-color="#AA80F9"/>
<stop offset="0.9964" stop-color="#6165D7"/>
</linearGradient>
<linearGradient id="paint33_linear_1137_10616" x1="216.177" y1="273.324" x2="197.825" y2="214.539" gradientUnits="userSpaceOnUse">
<stop offset="0.0036" stop-color="#E38DDD"/>
<stop offset="1" stop-color="#9571F6"/>
</linearGradient>
<linearGradient id="paint34_linear_1137_10616" x1="245.901" y1="201.894" x2="239.485" y2="217.261" gradientUnits="userSpaceOnUse">
<stop stop-color="#FFC444"/>
<stop offset="0.9964" stop-color="#F36F56"/>
</linearGradient>
<linearGradient id="paint35_linear_1137_10616" x1="238.05" y1="207.582" x2="254.322" y2="197.76" gradientUnits="userSpaceOnUse">
<stop stop-color="#311944"/>
<stop offset="1" stop-color="#6B3976"/>
</linearGradient>
<linearGradient id="paint36_linear_1137_10616" x1="250.65" y1="201.155" x2="236.001" y2="222.393" gradientUnits="userSpaceOnUse">
<stop stop-color="#FFC444"/>
<stop offset="0.9964" stop-color="#F36F56"/>
</linearGradient>
<linearGradient id="paint37_linear_1137_10616" x1="239.226" y1="209.545" x2="255.516" y2="199.712" gradientUnits="userSpaceOnUse">
<stop stop-color="#311944"/>
<stop offset="1" stop-color="#6B3976"/>
</linearGradient>
<linearGradient id="paint38_linear_1137_10616" x1="251.124" y1="205.215" x2="248.873" y2="207.562" gradientUnits="userSpaceOnUse">
<stop stop-color="#FFC444"/>
<stop offset="1" stop-color="#F36F56"/>
</linearGradient>
<linearGradient id="paint39_linear_1137_10616" x1="227.633" y1="257.889" x2="281.618" y2="257.889" gradientUnits="userSpaceOnUse">
<stop offset="0.494" stop-color="#EBEFF2"/>
<stop offset="1" stop-color="white"/>
</linearGradient>
</defs>
</svg>
