<svg width="247" height="496" viewBox="0 0 247 496" fill="none" xmlns="http://www.w3.org/2000/svg">
<path d="M131.21 462.204C134.195 468.063 134.911 469.132 140.592 477.132C145.207 483.632 148.092 485.153 157.868 490.132C162.955 492.724 168.457 493.33 174.243 494.404C174.315 494.416 174.386 494.425 174.457 494.44C175.365 494.604 176.277 494.759 177.198 494.883C177.968 494.99 178.749 495.069 179.528 495.146C179.783 495.17 180.034 495.207 180.289 495.229C182.463 495.415 184.667 495.489 186.898 495.434C219.091 494.641 245.061 468.804 246.082 436.669C246.085 436.565 246.094 436.461 246.097 436.357C246.099 436.313 246.103 436.267 246.105 436.222C246.118 435.713 246.102 435.207 246.102 434.698C246.102 434.192 246.118 433.686 246.105 433.176C246.103 433.131 246.099 433.087 246.097 433.042C246.094 432.938 246.085 432.834 246.082 432.73C245.058 400.594 219.085 374.756 186.893 373.968C184.664 373.914 182.462 373.988 180.288 374.173C180.036 374.195 179.788 374.231 179.535 374.256C178.753 374.334 177.971 374.412 177.198 374.519C176.271 374.644 175.353 374.8 174.441 374.966C174.376 374.978 174.31 374.986 174.245 374.998C168.459 376.071 162.955 377.952 157.868 380.541C152.009 383.525 144.923 382.565 140.272 377.914L118.806 356.447C113.537 351.177 112.215 343.161 115.459 336.453C117.323 332.599 118.782 328.515 119.803 324.262C119.871 323.975 119.926 323.683 119.991 323.395C120.147 322.698 120.307 322.002 120.44 321.294C120.581 320.549 120.693 319.794 120.806 319.037C120.846 318.767 120.898 318.502 120.935 318.231C121.294 315.58 121.462 312.878 121.461 310.137C121.461 308.451 121.407 306.776 121.271 305.123C121.257 304.973 121.236 304.824 121.223 304.673C121.139 303.735 121.036 302.8 120.908 301.874C120.857 301.497 120.788 301.126 120.729 300.751C120.624 300.079 120.517 299.408 120.389 298.742C120.284 298.185 120.158 297.636 120.036 297.085C119.935 296.633 119.839 296.18 119.727 295.73C119.552 295.015 119.356 294.307 119.156 293.602C119.083 293.35 119.015 293.098 118.939 292.849C118.681 291.983 118.401 291.127 118.105 290.277C118.084 290.22 118.067 290.165 118.046 290.109C117.152 287.561 116.112 285.081 114.9 282.701C111.915 276.842 112.877 269.755 117.526 265.105L138.994 243.638C144.262 238.369 152.279 237.047 158.988 240.291C166.491 243.92 174.855 246.051 183.691 246.291C193.809 246.567 203.422 244.283 211.947 240.069C212.324 239.886 212.697 239.696 213.068 239.506C213.359 239.355 213.65 239.205 213.938 239.051C232.722 229.069 245.654 209.528 246.209 186.904C247.054 152.391 218.308 123.723 183.796 124.664C175.291 124.897 167.223 126.879 159.938 130.264C152.675 133.639 144.102 132.321 138.439 126.657L117.632 105.85C112.982 101.2 112.021 94.1128 115.005 88.2539C118.972 80.4659 121.309 71.7074 121.561 62.4294C122.502 27.9175 93.8344 -0.829097 59.3195 0.0182675C26.9787 0.812208 0.906316 26.8861 0.11386 59.2284C-0.73202 93.7418 28.0145 122.408 62.525 121.467C71.8029 121.215 80.56 118.878 88.3495 114.911C94.2084 111.927 101.296 112.888 105.945 117.538L127.413 139.005C132.683 144.273 134.005 152.29 130.759 158.999C129.32 161.978 128.128 165.097 127.183 168.322C125.377 174.316 124.475 180.679 124.654 187.256C124.886 195.762 126.868 203.829 130.253 211.114C133.628 218.378 132.31 226.95 126.646 232.615L105.838 253.422C101.24 258.021 94.2588 259.004 88.4386 256.139C79.683 251.581 69.7224 249.082 59.2127 249.341C26.8704 250.135 0.799471 276.206 0.00553127 308.548C-0.00782473 309.079 0.00849764 309.603 0.00849764 310.13C0.00701364 310.665 -0.00782473 311.195 0.00553127 311.732C0.799471 344.073 26.8734 370.147 59.2157 370.94C69.0753 371.182 78.4512 369.001 86.8017 364.968C93.9516 361.893 102.247 363.266 107.777 368.795L128.584 389.602C133.233 394.25 134.196 401.338 131.21 407.198C128.142 413.228 126.061 419.842 125.154 426.824C125.147 426.883 125.141 426.943 125.133 427.001C125.012 427.962 124.903 428.928 124.826 429.903C124.788 430.372 124.776 430.849 124.748 431.321C124.718 431.888 124.67 432.45 124.654 433.021C124.653 433.054 124.656 433.088 124.654 433.121C124.639 433.643 124.653 434.174 124.653 434.7C124.653 435.227 124.639 435.755 124.654 436.279C124.656 436.311 124.653 436.345 124.654 436.377C124.669 436.948 124.716 437.51 124.748 438.077C124.776 438.551 124.789 439.029 124.826 439.499C124.903 440.477 125.012 441.446 125.135 442.411C125.142 442.464 125.147 442.52 125.154 442.575C126.059 449.559 128.14 456.175 131.21 462.204Z" fill="url(#paint0_linear_1137_10920)"/>
<path d="M60.8405 111.544C88.8811 111.544 111.613 88.8127 111.613 60.7721C111.613 32.7314 88.8811 10 60.8405 10C32.7998 10 10.0684 32.7314 10.0684 60.7721C10.0684 88.8127 32.7998 111.544 60.8405 111.544Z" fill="white"/>
<path fill-rule="evenodd" clip-rule="evenodd" d="M85.5474 36.6395C93.0668 44.1589 93.0668 56.4984 85.5474 64.0178C78.6065 70.7659 68.0022 71.5372 60.4828 65.9458L54.6987 71.73L56.0483 73.2724L38.6959 90.6248C34.4542 95.0593 27.1277 87.7328 31.3694 83.2982L48.7218 65.9458L50.2642 67.4883L56.0483 61.7041C50.6498 53.9919 51.2282 43.3877 57.9764 36.6395C65.6886 29.1202 77.8353 29.1202 85.5474 36.6395ZM81.8842 40.11C87.4755 45.7014 87.4755 54.7632 81.8842 60.3545C76.2928 65.9458 67.231 65.9458 61.6397 60.3545C56.0483 54.7632 56.0483 45.7014 61.6397 40.11C67.231 34.5187 76.2928 34.5187 81.8842 40.11Z" fill="url(#paint1_linear_1137_10920)"/>
<path d="M59.8244 360.547C87.8658 360.547 110.598 337.815 110.598 309.774C110.598 281.732 87.8658 259 59.8244 259C31.7829 259 9.05078 281.732 9.05078 309.774C9.05078 337.815 31.7829 360.547 59.8244 360.547Z" fill="white"/>
<path d="M80.6918 273H36.4918C35.5901 273 34.7253 273.527 34.0876 274.464C33.45 275.402 33.0918 276.674 33.0918 278V343C33.0918 344.326 33.45 345.598 34.0876 346.536C34.7253 347.473 35.5901 348 36.4918 348H80.6918C81.5935 348 82.4583 347.473 83.096 346.536C83.7336 345.598 84.0918 344.326 84.0918 343V278C84.0918 276.674 83.7336 275.402 83.096 274.464C82.4583 273.527 81.5935 273 80.6918 273V273ZM36.4918 275.5H80.6918C81.1427 275.5 81.5751 275.763 81.8939 276.232C82.2127 276.701 82.3918 277.337 82.3918 278V283H34.7918V278C34.7918 277.337 34.9709 276.701 35.2897 276.232C35.6085 275.763 36.0409 275.5 36.4918 275.5ZM80.6918 345.5H36.4918C36.0409 345.5 35.6085 345.237 35.2897 344.768C34.9709 344.299 34.7918 343.663 34.7918 343V285.5H82.3918V343C82.3918 343.663 82.2127 344.299 81.8939 344.768C81.5751 345.237 81.1427 345.5 80.6918 345.5Z" fill="url(#paint2_linear_1137_10920)"/>
<path d="M37.3422 280.5H38.1922C38.4176 280.5 38.6338 280.368 38.7932 280.134C38.9526 279.899 39.0422 279.582 39.0422 279.25C39.0422 278.918 38.9526 278.601 38.7932 278.366C38.6338 278.132 38.4176 278 38.1922 278H37.3422C37.1168 278 36.9006 278.132 36.7411 278.366C36.5817 278.601 36.4922 278.918 36.4922 279.25C36.4922 279.582 36.5817 279.899 36.7411 280.134C36.9006 280.368 37.1168 280.5 37.3422 280.5Z" fill="url(#paint3_linear_1137_10920)"/>
<path d="M41.5922 280.5H42.4422C42.6676 280.5 42.8838 280.368 43.0432 280.134C43.2026 279.899 43.2922 279.582 43.2922 279.25C43.2922 278.918 43.2026 278.601 43.0432 278.366C42.8838 278.132 42.6676 278 42.4422 278H41.5922C41.3668 278 41.1506 278.132 40.9911 278.366C40.8317 278.601 40.7422 278.918 40.7422 279.25C40.7422 279.582 40.8317 279.899 40.9911 280.134C41.1506 280.368 41.3668 280.5 41.5922 280.5Z" fill="url(#paint4_linear_1137_10920)"/>
<path d="M45.8422 280.5H46.6922C46.9176 280.5 47.1338 280.368 47.2932 280.134C47.4526 279.899 47.5422 279.582 47.5422 279.25C47.5422 278.918 47.4526 278.601 47.2932 278.366C47.1338 278.132 46.9176 278 46.6922 278H45.8422C45.6168 278 45.4006 278.132 45.2411 278.366C45.0817 278.601 44.9922 278.918 44.9922 279.25C44.9922 279.582 45.0817 279.899 45.2411 280.134C45.4006 280.368 45.6168 280.5 45.8422 280.5Z" fill="url(#paint5_linear_1137_10920)"/>
<path d="M74.7416 280.5H79.8416C80.067 280.5 80.2832 280.368 80.4426 280.134C80.602 279.899 80.6916 279.582 80.6916 279.25C80.6916 278.918 80.602 278.601 80.4426 278.366C80.2832 278.132 80.067 278 79.8416 278H74.7416C74.5162 278 74.3 278.132 74.1406 278.366C73.9812 278.601 73.8916 278.918 73.8916 279.25C73.8916 279.582 73.9812 279.899 74.1406 280.134C74.3 280.368 74.5162 280.5 74.7416 280.5Z" fill="url(#paint6_linear_1137_10920)"/>
<path d="M78.9922 289.25H38.1922C37.7413 289.25 37.3089 289.513 36.9901 289.982C36.6713 290.451 36.4922 291.087 36.4922 291.75V304.25C36.4922 304.913 36.6713 305.549 36.9901 306.018C37.3089 306.487 37.7413 306.75 38.1922 306.75H78.9922C79.443 306.75 79.8754 306.487 80.1943 306.018C80.5131 305.549 80.6922 304.913 80.6922 304.25V291.75C80.6922 291.087 80.5131 290.451 80.1943 289.982C79.8754 289.513 79.443 289.25 78.9922 289.25ZM78.9922 303.148L42.8017 291.75H78.9922V303.148ZM38.1922 292.855L74.3741 304.25H38.1922V292.855Z" fill="url(#paint7_linear_1137_10920)"/>
<path d="M56.8922 309.25H38.1922C37.7413 309.25 37.3089 309.513 36.9901 309.982C36.6713 310.451 36.4922 311.087 36.4922 311.75V339.25C36.4922 339.913 36.6713 340.549 36.9901 341.018C37.3089 341.487 37.7413 341.75 38.1922 341.75H56.8922C57.343 341.75 57.7754 341.487 58.0943 341.018C58.4131 340.549 58.5922 339.913 58.5922 339.25V311.75C58.5922 311.087 58.4131 310.451 58.0943 309.982C57.7754 309.513 57.343 309.25 56.8922 309.25ZM56.8922 337.484L39.3941 311.75H56.8922V337.484ZM38.1922 313.518L55.6903 339.25H38.1922V313.518Z" fill="url(#paint8_linear_1137_10920)"/>
<path d="M62.842 316.75H69.642C70.3183 316.75 70.9669 316.355 71.4451 315.652C71.9233 314.948 72.192 313.995 72.192 313C72.192 312.005 71.9233 311.052 71.4451 310.348C70.9669 309.645 70.3183 309.25 69.642 309.25H62.842C62.1657 309.25 61.5171 309.645 61.0389 310.348C60.5607 311.052 60.292 312.005 60.292 313C60.292 313.995 60.5607 314.948 61.0389 315.652C61.5171 316.355 62.1657 316.75 62.842 316.75ZM62.842 311.75H69.642C69.8674 311.75 70.0836 311.882 70.243 312.116C70.4024 312.351 70.492 312.668 70.492 313C70.492 313.332 70.4024 313.649 70.243 313.884C70.0836 314.118 69.8674 314.25 69.642 314.25H62.842C62.6166 314.25 62.4004 314.118 62.241 313.884C62.0815 313.649 61.992 313.332 61.992 313C61.992 312.668 62.0815 312.351 62.241 312.116C62.4004 311.882 62.6166 311.75 62.842 311.75Z" fill="url(#paint9_linear_1137_10920)"/>
<path d="M78.992 319.25H61.142C60.9166 319.25 60.7004 319.382 60.541 319.616C60.3815 319.851 60.292 320.168 60.292 320.5C60.292 320.832 60.3815 321.149 60.541 321.384C60.7004 321.618 60.9166 321.75 61.142 321.75H78.992C79.2174 321.75 79.4336 321.618 79.593 321.384C79.7524 321.149 79.842 320.832 79.842 320.5C79.842 320.168 79.7524 319.851 79.593 319.616C79.4336 319.382 79.2174 319.25 78.992 319.25Z" fill="url(#paint10_linear_1137_10920)"/>
<path d="M78.992 324.25H69.642C69.4166 324.25 69.2004 324.382 69.041 324.616C68.8815 324.851 68.792 325.168 68.792 325.5C68.792 325.832 68.8815 326.149 69.041 326.384C69.2004 326.618 69.4166 326.75 69.642 326.75H78.992C79.2174 326.75 79.4336 326.618 79.593 326.384C79.7524 326.149 79.842 325.832 79.842 325.5C79.842 325.168 79.7524 324.851 79.593 324.616C79.4336 324.382 79.2174 324.25 78.992 324.25Z" fill="url(#paint11_linear_1137_10920)"/>
<path d="M61.142 326.75H66.242C66.4674 326.75 66.6836 326.618 66.843 326.384C67.0024 326.149 67.092 325.832 67.092 325.5C67.092 325.168 67.0024 324.851 66.843 324.616C66.6836 324.382 66.4674 324.25 66.242 324.25H61.142C60.9166 324.25 60.7004 324.382 60.541 324.616C60.3815 324.851 60.292 325.168 60.292 325.5C60.292 325.832 60.3815 326.149 60.541 326.384C60.7004 326.618 60.9166 326.75 61.142 326.75Z" fill="url(#paint12_linear_1137_10920)"/>
<path d="M78.992 329.25H61.142C60.9166 329.25 60.7004 329.382 60.541 329.616C60.3815 329.851 60.292 330.168 60.292 330.5C60.292 330.832 60.3815 331.149 60.541 331.384C60.7004 331.618 60.9166 331.75 61.142 331.75H78.992C79.2174 331.75 79.4336 331.618 79.593 331.384C79.7524 331.149 79.842 330.832 79.842 330.5C79.842 330.168 79.7524 329.851 79.593 329.616C79.4336 329.382 79.2174 329.25 78.992 329.25Z" fill="url(#paint13_linear_1137_10920)"/>
<path d="M78.992 334.25H61.142C60.9166 334.25 60.7004 334.382 60.541 334.616C60.3815 334.851 60.292 335.168 60.292 335.5C60.292 335.832 60.3815 336.149 60.541 336.384C60.7004 336.618 60.9166 336.75 61.142 336.75H78.992C79.2174 336.75 79.4336 336.618 79.593 336.384C79.7524 336.149 79.842 335.832 79.842 335.5C79.842 335.168 79.7524 334.851 79.593 334.616C79.4336 334.382 79.2174 334.25 78.992 334.25Z" fill="url(#paint14_linear_1137_10920)"/>
<path d="M71.342 339.25H61.142C60.9166 339.25 60.7004 339.382 60.541 339.616C60.3815 339.851 60.292 340.168 60.292 340.5C60.292 340.832 60.3815 341.149 60.541 341.384C60.7004 341.618 60.9166 341.75 61.142 341.75H71.342C71.5674 341.75 71.7836 341.618 71.943 341.384C72.1024 341.149 72.192 340.832 72.192 340.5C72.192 340.168 72.1024 339.851 71.943 339.616C71.7836 339.382 71.5674 339.25 71.342 339.25Z" fill="url(#paint15_linear_1137_10920)"/>
<path d="M185.563 236.544C213.604 236.544 236.335 213.813 236.335 185.772C236.335 157.731 213.604 135 185.563 135C157.522 135 134.791 157.731 134.791 185.772C134.791 213.813 157.522 236.544 185.563 236.544Z" fill="white"/>
<path d="M204.305 167.998C204.769 168.197 205.189 168.396 205.564 168.573V168.594C205.741 168.661 205.896 168.749 206.05 168.838L211.42 165.126L212.061 164.684L212.613 165.236L216.855 169.501L217.429 170.075L216.943 170.716L212.988 176.13C213.585 177.124 214.115 178.163 214.557 179.224C214.977 180.262 215.331 181.345 215.596 182.472L222.225 183.223L223.042 183.311V184.151V190.183V190.956L222.246 191.089L215.573 192.149C215.307 193.276 214.954 194.359 214.513 195.397C214.071 196.458 213.54 197.496 212.944 198.447L216.943 203.926L217.429 204.567L216.855 205.141L212.745 209.273L212.171 209.847L211.531 209.361L206.094 205.295C205.122 205.893 204.106 206.4 203.046 206.842C202.007 207.283 200.924 207.615 199.798 207.88L198.825 214.62L198.714 215.438H197.918H194.559H193.632V214.51V201.187V200.237L194.582 200.258H194.936C198.537 200.258 201.785 198.8 204.128 196.458C206.492 194.093 207.95 190.845 207.95 187.244C207.95 185.034 207.398 182.957 206.426 181.145C205.409 179.267 203.951 177.654 202.206 176.461L201.565 176.041L201.852 175.334C202.25 174.428 202.537 173.456 202.736 172.44C202.913 171.468 203.023 170.451 203.023 169.413V169.17V168.883L202.979 167.446L204.305 167.998ZM205.565 170.716C205.366 170.584 205.123 170.451 204.858 170.319C204.814 171.158 204.726 171.976 204.549 172.794C204.394 173.677 204.151 174.517 203.842 175.356C205.588 176.66 207.045 178.34 208.063 180.284C209.167 182.361 209.808 184.747 209.808 187.244C209.808 191.353 208.151 195.088 205.454 197.762C202.87 200.325 199.378 201.96 195.49 202.114V213.561H197.102L198.053 206.998L198.141 206.335L198.781 206.202C200.019 205.959 201.19 205.605 202.339 205.119C203.488 204.655 204.592 204.058 205.609 203.374L206.161 203.02L206.692 203.418L211.994 207.373L214.978 204.39L211.066 199.021L210.691 198.513L211.044 197.96C211.729 196.944 212.327 195.839 212.79 194.69C213.276 193.564 213.629 192.37 213.895 191.155L214.006 190.515L214.646 190.427L221.187 189.388V184.968L214.779 184.239H214.049L213.917 183.488C213.673 182.251 213.298 181.058 212.834 179.931C212.369 178.782 211.773 177.677 211.088 176.616L210.735 176.086L211.11 175.556L214.977 170.253L211.839 167.092L206.603 170.716L206.094 171.07L205.565 170.716Z" fill="url(#paint16_linear_1137_10920)"/>
<path d="M187.469 152C192.286 152 196.639 153.944 199.798 157.104C202.935 160.264 204.88 164.617 204.88 169.412C204.88 171.511 204.526 173.499 203.842 175.377C203.157 177.278 202.139 179.023 200.859 180.548C200.527 181.122 200.174 181.697 199.82 182.293C197.434 186.182 194.429 191.11 194.429 197.407V198.334H193.501H187.469H181.459H180.508V197.407C180.508 191.11 177.526 186.183 175.139 182.293C174.785 181.697 174.432 181.144 174.101 180.548C172.819 179.023 171.803 177.278 171.118 175.377C170.433 173.521 170.058 171.511 170.058 169.412C170.058 164.617 172.024 160.264 175.162 157.104C178.32 153.944 182.673 152 187.469 152ZM198.472 158.429C195.666 155.601 191.777 153.878 187.469 153.878C183.182 153.878 179.293 155.601 176.486 158.407V158.429C173.68 161.236 171.935 165.124 171.935 169.411C171.935 171.289 172.266 173.079 172.862 174.736C173.481 176.46 174.409 178.051 175.58 179.42L175.624 179.487L175.668 179.553C175.978 180.061 176.354 180.68 176.729 181.321C179.116 185.232 182.099 190.115 182.364 196.478H187.469H192.594C192.86 190.115 195.843 185.232 198.229 181.321C198.604 180.68 198.981 180.084 199.29 179.553L199.334 179.487L199.378 179.42C200.55 178.051 201.456 176.46 202.096 174.736C202.693 173.079 203.024 171.289 203.024 169.411C203.024 165.124 201.278 161.236 198.472 158.429Z" fill="url(#paint17_linear_1137_10920)"/>
<path d="M180.596 199.816H194.406H195.334V200.744V204.346V205.296H194.406H180.596H179.646V204.346V200.744V199.816H180.596ZM193.478 201.672H181.525V203.418H193.478V201.672Z" fill="url(#paint18_linear_1137_10920)"/>
<path d="M180.596 206.621H194.406H195.334V207.549V213.405C195.334 214.664 194.826 215.814 193.986 216.653C193.146 217.493 191.997 218.001 190.738 218.001H184.241C182.982 218.001 181.833 217.494 180.993 216.653C180.176 215.814 179.646 214.687 179.646 213.405V207.549V206.621H180.596ZM193.478 208.478H181.525V213.405C181.525 214.157 181.834 214.841 182.321 215.327C182.806 215.836 183.492 216.145 184.243 216.145H190.739C191.491 216.145 192.176 215.836 192.662 215.349L192.683 215.327C193.17 214.841 193.479 214.157 193.479 213.405V208.478H193.478Z" fill="url(#paint19_linear_1137_10920)"/>
<path d="M188.396 178.117H186.54V197.274H188.396V178.117Z" fill="url(#paint20_linear_1137_10920)"/>
<path d="M194.097 172.548C194.076 174.338 193.324 175.973 192.108 177.144C190.916 178.315 189.28 179.045 187.469 179.045C185.679 179.045 184.043 178.315 182.828 177.144C181.636 175.973 180.884 174.338 180.862 172.548L182.718 172.504C182.74 173.807 183.271 174.979 184.132 175.818C184.994 176.658 186.187 177.166 187.469 177.166C188.772 177.166 189.965 176.658 190.827 175.818C191.69 174.979 192.22 173.807 192.241 172.504L194.097 172.548Z" fill="url(#paint21_linear_1137_10920)"/>
<path d="M167.117 170.447H157.948V199.57L162.522 206.884L167.118 199.57V170.447H167.117ZM168.951 169.276C168.973 169.342 168.996 169.431 168.996 169.519V169.541V199.835C168.996 200.034 168.929 200.233 168.797 200.387L163.295 209.115C163.029 209.557 162.455 209.689 162.013 209.424C161.88 209.336 161.792 209.247 161.726 209.115L156.224 200.321C156.136 200.167 156.092 200.012 156.092 199.835V169.519C156.092 169.431 156.092 169.365 156.114 169.299C156.092 169.232 156.092 169.144 156.092 169.077V169.033V162.713C156.092 161.874 156.423 161.101 156.976 160.548C157.528 159.996 158.301 159.664 159.14 159.664H165.924C166.764 159.664 167.537 159.995 168.089 160.548L168.133 160.614C168.664 161.166 168.973 161.896 168.973 162.713V169.077C168.973 169.144 168.973 169.21 168.951 169.276ZM165.924 161.521H159.14C158.809 161.521 158.5 161.653 158.301 161.875C158.08 162.073 157.948 162.382 157.948 162.714V168.128H167.118V162.714C167.118 162.383 166.985 162.117 166.809 161.897L166.764 161.874C166.543 161.653 166.256 161.521 165.924 161.521Z" fill="url(#paint22_linear_1137_10920)"/>
<path d="M161.571 169.523H159.715V199.861H161.571V169.523Z" fill="url(#paint23_linear_1137_10920)"/>
<path d="M165.372 169.523H163.494V199.861H165.372V169.523Z" fill="url(#paint24_linear_1137_10920)"/>
<path d="M165.085 203.594H159.937V205.45H165.085V203.594Z" fill="url(#paint25_linear_1137_10920)"/>
<path d="M163.383 208.055V211.038C163.383 211.701 163.67 212.297 164.113 212.739C164.554 213.181 165.151 213.469 165.814 213.469H180.419V215.325H165.814C164.643 215.325 163.56 214.839 162.787 214.065C162.014 213.293 161.527 212.209 161.527 211.039V208.055H163.383V208.055Z" fill="url(#paint26_linear_1137_10920)"/>
<path d="M185.563 485.544C213.604 485.544 236.335 462.813 236.335 434.772C236.335 406.731 213.604 384 185.563 384C157.522 384 134.791 406.731 134.791 434.772C134.791 462.813 157.522 485.544 185.563 485.544Z" fill="white"/>
<path d="M174.842 435.35C176.852 435.35 176.852 438.408 174.842 438.408H170.442C168.431 438.408 168.431 435.35 170.442 435.35H174.842ZM215.035 436.782C215.035 434.772 218.093 434.772 218.093 436.782C218.093 441.68 218.093 446.578 218.093 451.475C218.093 452.32 217.408 453.004 216.564 453.004C209.607 453.004 202.649 453.004 195.692 453.004L198.113 459.942H207.174C209.185 459.942 209.185 463 207.174 463C194.453 463 181.732 463 169.01 463C166.999 463 166.999 459.942 169.01 459.942H178.071L180.492 453.004C173.535 453.004 166.577 453.004 159.62 453.004C158.776 453.004 158.092 452.32 158.092 451.475C158.092 440.245 158.092 429.014 158.092 417.783C158.092 415.563 159.903 413.751 162.124 413.751H196.54C198.551 413.751 198.551 416.809 196.54 416.809H162.124C161.591 416.809 161.149 417.251 161.149 417.783V423.2H172.542C174.552 423.2 174.552 426.257 172.542 426.257H161.149V435.35H165.992C168.003 435.35 168.003 438.408 165.992 438.408H161.149V442.085C179.111 442.085 197.073 442.085 215.035 442.085V436.782ZM201.521 411.042C199.527 410.854 199.813 407.82 201.808 408.008C213.15 409.112 221.463 419.205 220.36 430.55C220.171 432.544 217.138 432.258 217.327 430.263C218.268 420.594 211.193 411.982 201.521 411.042ZM200.466 422.997C198.297 422.947 198.646 419.553 200.794 419.968C205.424 420.496 208.809 424.607 208.429 429.253C208.416 431.337 205.186 431.209 205.383 429.1C205.678 426.068 203.496 423.349 200.466 422.997ZM201.088 416.667C198.916 416.624 199.256 413.231 201.404 413.637C209.534 414.505 215.48 421.727 214.758 429.873C214.741 431.953 211.517 431.822 211.713 429.716C212.348 423.191 207.608 417.362 201.088 416.667ZM186.995 420.703L194.577 426.389C196.987 428.197 196.987 431.775 194.577 433.582L186.995 439.269C183.944 441.556 179.796 439.261 179.796 435.672V424.299C179.796 420.711 183.944 418.414 186.995 420.703ZM192.749 428.825L185.168 423.139C184.136 422.365 182.853 423.209 182.853 424.299V435.672C182.853 436.777 184.146 437.599 185.168 436.832L192.749 431.146C193.526 430.565 193.526 429.406 192.749 428.825ZM192.952 445.143C193.685 446.643 193.685 448.447 192.952 449.947H214.073C214.605 449.941 215.035 449.503 215.035 448.973V445.143H192.952ZM183.233 449.947C182.5 448.447 182.5 446.643 183.233 445.143H161.149V448.973C161.149 449.5 161.584 449.941 162.112 449.947H183.233ZM189.752 445.834C188.841 444.912 187.343 444.912 186.432 445.834C185.508 446.769 185.508 448.32 186.432 449.255C187.339 450.173 188.846 450.173 189.752 449.255C190.676 448.32 190.676 446.769 189.752 445.834ZM192.463 453.004H183.721L181.299 459.942H194.885L192.463 453.004Z" fill="url(#paint27_linear_1137_10920)"/>
<defs>
<linearGradient id="paint0_linear_1137_10920" x1="123.113" y1="0" x2="123.113" y2="495.452" gradientUnits="userSpaceOnUse">
<stop stop-color="#026B7C"/>
<stop offset="0.510417" stop-color="#0CDBE6"/>
<stop offset="1" stop-color="#026B7C"/>
</linearGradient>
<linearGradient id="paint1_linear_1137_10920" x1="60.6394" y1="31" x2="60.6394" y2="92" gradientUnits="userSpaceOnUse">
<stop stop-color="#F7CC7F"/>
<stop offset="0.479167" stop-color="#F7A491"/>
<stop offset="1" stop-color="#F36F56"/>
</linearGradient>
<linearGradient id="paint2_linear_1137_10920" x1="58.5918" y1="273" x2="58.5918" y2="348" gradientUnits="userSpaceOnUse">
<stop stop-color="#FFC444"/>
<stop offset="0.458333" stop-color="#F7A491"/>
<stop offset="1" stop-color="#F36F56"/>
</linearGradient>
<linearGradient id="paint3_linear_1137_10920" x1="37.7672" y1="278" x2="37.7672" y2="280.5" gradientUnits="userSpaceOnUse">
<stop stop-color="#FFC444"/>
<stop offset="0.458333" stop-color="#F7A491"/>
<stop offset="1" stop-color="#F36F56"/>
</linearGradient>
<linearGradient id="paint4_linear_1137_10920" x1="42.0172" y1="278" x2="42.0172" y2="280.5" gradientUnits="userSpaceOnUse">
<stop stop-color="#FFC444"/>
<stop offset="0.458333" stop-color="#F7A491"/>
<stop offset="1" stop-color="#F36F56"/>
</linearGradient>
<linearGradient id="paint5_linear_1137_10920" x1="46.2672" y1="278" x2="46.2672" y2="280.5" gradientUnits="userSpaceOnUse">
<stop stop-color="#FFC444"/>
<stop offset="0.458333" stop-color="#F7A491"/>
<stop offset="1" stop-color="#F36F56"/>
</linearGradient>
<linearGradient id="paint6_linear_1137_10920" x1="77.2916" y1="278" x2="77.2916" y2="280.5" gradientUnits="userSpaceOnUse">
<stop stop-color="#FFC444"/>
<stop offset="0.458333" stop-color="#F7A491"/>
<stop offset="1" stop-color="#F36F56"/>
</linearGradient>
<linearGradient id="paint7_linear_1137_10920" x1="58.5922" y1="289.25" x2="58.5922" y2="306.75" gradientUnits="userSpaceOnUse">
<stop stop-color="#FFC444"/>
<stop offset="0.458333" stop-color="#F7A491"/>
<stop offset="1" stop-color="#F36F56"/>
</linearGradient>
<linearGradient id="paint8_linear_1137_10920" x1="47.5422" y1="309.25" x2="47.5422" y2="341.75" gradientUnits="userSpaceOnUse">
<stop stop-color="#FFC444"/>
<stop offset="0.458333" stop-color="#F7A491"/>
<stop offset="1" stop-color="#F36F56"/>
</linearGradient>
<linearGradient id="paint9_linear_1137_10920" x1="66.242" y1="309.25" x2="66.242" y2="316.75" gradientUnits="userSpaceOnUse">
<stop stop-color="#FFC444"/>
<stop offset="0.458333" stop-color="#F7A491"/>
<stop offset="1" stop-color="#F36F56"/>
</linearGradient>
<linearGradient id="paint10_linear_1137_10920" x1="70.067" y1="319.25" x2="70.067" y2="321.75" gradientUnits="userSpaceOnUse">
<stop stop-color="#FFC444"/>
<stop offset="0.458333" stop-color="#F7A491"/>
<stop offset="1" stop-color="#F36F56"/>
</linearGradient>
<linearGradient id="paint11_linear_1137_10920" x1="74.317" y1="324.25" x2="74.317" y2="326.75" gradientUnits="userSpaceOnUse">
<stop stop-color="#FFC444"/>
<stop offset="0.458333" stop-color="#F7A491"/>
<stop offset="1" stop-color="#F36F56"/>
</linearGradient>
<linearGradient id="paint12_linear_1137_10920" x1="63.692" y1="324.25" x2="63.692" y2="326.75" gradientUnits="userSpaceOnUse">
<stop stop-color="#FFC444"/>
<stop offset="0.458333" stop-color="#F7A491"/>
<stop offset="1" stop-color="#F36F56"/>
</linearGradient>
<linearGradient id="paint13_linear_1137_10920" x1="70.067" y1="329.25" x2="70.067" y2="331.75" gradientUnits="userSpaceOnUse">
<stop stop-color="#FFC444"/>
<stop offset="0.458333" stop-color="#F7A491"/>
<stop offset="1" stop-color="#F36F56"/>
</linearGradient>
<linearGradient id="paint14_linear_1137_10920" x1="70.067" y1="334.25" x2="70.067" y2="336.75" gradientUnits="userSpaceOnUse">
<stop stop-color="#FFC444"/>
<stop offset="0.458333" stop-color="#F7A491"/>
<stop offset="1" stop-color="#F36F56"/>
</linearGradient>
<linearGradient id="paint15_linear_1137_10920" x1="66.242" y1="339.25" x2="66.242" y2="341.75" gradientUnits="userSpaceOnUse">
<stop stop-color="#FFC444"/>
<stop offset="0.458333" stop-color="#F7A491"/>
<stop offset="1" stop-color="#F36F56"/>
</linearGradient>
<linearGradient id="paint16_linear_1137_10920" x1="208.337" y1="164.684" x2="208.337" y2="215.438" gradientUnits="userSpaceOnUse">
<stop stop-color="#FFC444"/>
<stop offset="0.458333" stop-color="#F7A491"/>
<stop offset="1" stop-color="#F36F56"/>
</linearGradient>
<linearGradient id="paint17_linear_1137_10920" x1="187.469" y1="152" x2="187.469" y2="198.334" gradientUnits="userSpaceOnUse">
<stop stop-color="#FFC444"/>
<stop offset="0.458333" stop-color="#F7A491"/>
<stop offset="1" stop-color="#F36F56"/>
</linearGradient>
<linearGradient id="paint18_linear_1137_10920" x1="187.49" y1="199.816" x2="187.49" y2="205.296" gradientUnits="userSpaceOnUse">
<stop stop-color="#FFC444"/>
<stop offset="0.458333" stop-color="#F7A491"/>
<stop offset="1" stop-color="#F36F56"/>
</linearGradient>
<linearGradient id="paint19_linear_1137_10920" x1="187.49" y1="206.621" x2="187.49" y2="218.001" gradientUnits="userSpaceOnUse">
<stop stop-color="#FFC444"/>
<stop offset="0.458333" stop-color="#F7A491"/>
<stop offset="1" stop-color="#F36F56"/>
</linearGradient>
<linearGradient id="paint20_linear_1137_10920" x1="187.468" y1="178.117" x2="187.468" y2="197.274" gradientUnits="userSpaceOnUse">
<stop stop-color="#FFC444"/>
<stop offset="0.458333" stop-color="#F7A491"/>
<stop offset="1" stop-color="#F36F56"/>
</linearGradient>
<linearGradient id="paint21_linear_1137_10920" x1="187.48" y1="172.504" x2="187.48" y2="179.045" gradientUnits="userSpaceOnUse">
<stop stop-color="#FFC444"/>
<stop offset="0.458333" stop-color="#F7A491"/>
<stop offset="1" stop-color="#F36F56"/>
</linearGradient>
<linearGradient id="paint22_linear_1137_10920" x1="162.544" y1="159.664" x2="162.544" y2="209.56" gradientUnits="userSpaceOnUse">
<stop stop-color="#FFC444"/>
<stop offset="0.458333" stop-color="#F7A491"/>
<stop offset="1" stop-color="#F36F56"/>
</linearGradient>
<linearGradient id="paint23_linear_1137_10920" x1="160.643" y1="169.523" x2="160.643" y2="199.861" gradientUnits="userSpaceOnUse">
<stop stop-color="#FFC444"/>
<stop offset="0.458333" stop-color="#F7A491"/>
<stop offset="1" stop-color="#F36F56"/>
</linearGradient>
<linearGradient id="paint24_linear_1137_10920" x1="164.433" y1="169.523" x2="164.433" y2="199.861" gradientUnits="userSpaceOnUse">
<stop stop-color="#FFC444"/>
<stop offset="0.458333" stop-color="#F7A491"/>
<stop offset="1" stop-color="#F36F56"/>
</linearGradient>
<linearGradient id="paint25_linear_1137_10920" x1="162.511" y1="203.594" x2="162.511" y2="205.45" gradientUnits="userSpaceOnUse">
<stop stop-color="#FFC444"/>
<stop offset="0.458333" stop-color="#F7A491"/>
<stop offset="1" stop-color="#F36F56"/>
</linearGradient>
<linearGradient id="paint26_linear_1137_10920" x1="170.973" y1="208.055" x2="170.973" y2="215.325" gradientUnits="userSpaceOnUse">
<stop stop-color="#FFC444"/>
<stop offset="0.458333" stop-color="#F7A491"/>
<stop offset="1" stop-color="#F36F56"/>
</linearGradient>
<linearGradient id="paint27_linear_1137_10920" x1="189.275" y1="408" x2="189.275" y2="463" gradientUnits="userSpaceOnUse">
<stop stop-color="#FFC444"/>
<stop offset="0.536458" stop-color="#F7A491"/>
<stop offset="1" stop-color="#F36F56"/>
</linearGradient>
</defs>
</svg>
