<svg width="279" height="214" viewBox="0 0 279 214" fill="none" xmlns="http://www.w3.org/2000/svg">
<path d="M28.2871 38.473V161.267C28.2871 171.368 35.5499 179.629 44.661 179.889C85.1274 181.046 226.66 183.85 265.181 183.221C271.802 183.113 277.165 177.24 277.356 169.905C278.099 141.378 279.306 72.7808 274.841 40.9337C273.901 34.227 268.793 29.212 262.673 28.995C228.767 27.7928 78.7334 23.9756 40.23 24.934C33.5896 25.0993 28.2871 31.1113 28.2871 38.473Z" fill="url(#paint0_linear_1137_10715)"/>
<path d="M35.2393 37.8741V154.537C35.2393 160.435 39.5108 165.24 44.8315 165.328L259.639 168.27C264.914 168.357 269.238 163.653 269.258 157.806L269.618 42.1859C269.631 38.0049 266.626 34.5794 262.855 34.4776L42.9316 29.5533C38.7138 29.4394 35.2393 33.198 35.2393 37.8741Z" fill="url(#paint1_linear_1137_10715)"/>
<path opacity="0.65" d="M270.875 173.019C270.873 173.019 270.871 173.019 270.869 173.019L35.2333 168.57C35.0686 168.566 34.9374 168.43 34.9405 168.265C34.9437 168.101 35.0768 167.981 35.2446 167.973L270.881 172.423C271.045 172.426 271.177 172.562 271.173 172.727C271.17 172.89 271.037 173.019 270.875 173.019Z" fill="white"/>
<path d="M171.606 65.1608L171.582 64.8633L149.508 66.6148L149.532 66.9124L171.606 65.1608Z" fill="white"/>
<path d="M149.67 103.583L149.372 103.556L151.472 80.7806C151.526 80.2016 151.331 79.6229 150.94 79.1933C150.548 78.7636 149.989 78.5172 149.408 78.5172H113.985C112.842 78.5172 111.912 79.4472 111.912 80.5904V87.6624H111.613V80.5904C111.613 79.2826 112.677 78.2188 113.985 78.2188H149.408C150.073 78.2188 150.712 78.5007 151.16 78.9923C151.608 79.4838 151.831 80.1457 151.77 80.8082L149.67 103.583Z" fill="white"/>
<path d="M157.799 150.174C133.66 150.174 114.022 130.536 114.022 106.398C114.022 82.2591 133.66 62.6211 157.799 62.6211C181.938 62.6211 201.576 82.2591 201.576 106.398C201.576 130.536 181.938 150.174 157.799 150.174ZM157.799 67.3961C136.294 67.3961 118.797 84.8921 118.797 106.398C118.797 127.903 136.294 145.399 157.799 145.399C179.304 145.399 196.801 127.903 196.801 106.398C196.801 84.8921 179.304 67.3961 157.799 67.3961Z" fill="white"/>
<path d="M157.799 130.569C144.471 130.569 133.628 119.726 133.628 106.398C133.628 93.0697 144.471 82.2266 157.799 82.2266C171.127 82.2266 181.97 93.0697 181.97 106.398C181.97 119.726 171.127 130.569 157.799 130.569ZM157.799 87.0016C147.104 87.0016 138.403 95.7026 138.403 106.398C138.403 117.093 147.104 125.794 157.799 125.794C168.494 125.794 177.195 117.093 177.195 106.398C177.195 95.7026 168.494 87.0016 157.799 87.0016Z" fill="white"/>
<path d="M157.799 116.416C163.333 116.416 167.819 111.93 167.819 106.395C167.819 100.861 163.333 96.375 157.799 96.375C152.265 96.375 147.778 100.861 147.778 106.395C147.778 111.93 152.265 116.416 157.799 116.416Z" fill="white"/>
<path d="M160.703 64.863H155.766V59.1993C155.766 57.8357 156.871 56.7305 158.234 56.7305C159.598 56.7305 160.703 57.8357 160.703 59.1993V64.863H160.703Z" fill="white"/>
<path d="M117.136 103.492V108.43H111.472C110.108 108.43 109.003 107.325 109.003 105.961C109.003 104.598 110.108 103.492 111.472 103.492H117.136V103.492Z" fill="white"/>
<path d="M199.333 108.43V103.492H204.997C206.36 103.492 207.466 104.598 207.466 105.961C207.466 107.324 206.36 108.43 204.997 108.43H199.333V108.43Z" fill="white"/>
<g opacity="0.3">
<path opacity="0.3" d="M127.114 33.7712C127.708 33.6688 128.296 34.0295 128.463 34.6221C128.829 35.9179 129.144 37.249 129.399 38.578C129.523 39.2246 129.1 39.8496 128.453 39.9738C128.446 39.9751 128.438 39.9764 128.431 39.9777C127.792 40.0878 127.18 39.667 127.058 39.028C126.815 37.7652 126.516 36.501 126.168 35.27C125.99 34.6365 126.358 33.9776 126.992 33.7989C127.033 33.7872 127.074 33.7783 127.114 33.7712ZM128.804 44.0176C128.85 44.0097 128.897 44.0044 128.944 44.0018C129.602 43.9668 130.163 44.4715 130.198 45.1289C130.27 46.4793 130.284 47.8461 130.241 49.1912C130.22 49.8492 129.672 50.3637 129.012 50.3449C128.354 50.3238 127.838 49.773 127.859 49.1155C127.899 47.8369 127.885 46.5385 127.817 45.2552C127.785 44.6455 128.217 44.1189 128.804 44.0176ZM128.195 54.3811C128.325 54.3585 128.462 54.3576 128.601 54.3815C129.249 54.4941 129.684 55.1108 129.572 55.7596C129.342 57.0892 129.051 58.4255 128.707 59.7312C128.539 60.3679 127.887 60.7473 127.251 60.5806C126.614 60.413 126.234 59.7608 126.402 59.1243C126.728 57.8843 127.004 56.6158 127.223 55.3529C127.311 54.8425 127.712 54.4644 128.195 54.3811ZM125.283 64.3503C125.499 64.313 125.728 64.335 125.945 64.4261C126.552 64.6804 126.838 65.3792 126.584 65.9863C126.061 67.2316 125.479 68.4693 124.853 69.665C124.547 70.2474 123.827 70.4727 123.244 70.1678C122.661 69.8625 122.436 69.142 122.741 68.5588C123.336 67.4233 123.889 66.2478 124.385 65.0642C124.549 64.6745 124.895 64.4173 125.283 64.3503ZM120.221 73.4197C120.525 73.3675 120.847 73.4318 121.117 73.625C121.653 74.0078 121.777 74.7525 121.394 75.2877C120.61 76.3834 119.769 77.4613 118.892 78.4902C118.466 78.9919 117.714 79.0527 117.212 78.6255C116.711 78.1987 116.65 77.4466 117.077 76.9449C117.91 75.9669 118.71 74.9425 119.454 73.9011C119.644 73.6355 119.923 73.4712 120.221 73.4197ZM113.28 81.143C113.673 81.0753 114.09 81.2056 114.374 81.5252C114.812 82.0171 114.768 82.7703 114.276 83.2081C113.268 84.1048 112.209 84.9698 111.128 85.778C110.601 86.1723 109.854 86.0644 109.46 85.5371C109.066 85.0102 109.173 84.263 109.701 83.8687C110.728 83.1005 111.734 82.2791 112.692 81.427C112.864 81.2735 113.068 81.1796 113.28 81.143ZM70.7178 91.3634C70.8805 91.3353 71.0513 91.3408 71.2213 91.3853C72.4603 91.7092 73.7302 91.9835 74.9956 92.2001C75.6444 92.3111 76.0804 92.9273 75.9692 93.5758C75.8584 94.2248 75.2424 94.6608 74.5933 94.5498C73.2607 94.3218 71.9231 94.0331 70.6183 93.6921C69.9813 93.5255 69.6 92.874 69.7666 92.2371C69.8885 91.77 70.2713 91.4405 70.7178 91.3634ZM104.805 87.1322C105.293 87.0482 105.801 87.2752 106.052 87.7328C106.37 88.3097 106.159 89.0345 105.582 89.3518C104.4 90.0021 103.175 90.6089 101.941 91.1553C101.338 91.4191 100.635 91.1504 100.369 90.5481C100.102 89.9464 100.374 89.2421 100.976 88.9754C102.148 88.4567 103.311 87.8804 104.434 87.263C104.553 87.1974 104.678 87.1541 104.805 87.1322ZM80.9962 92.8407C81.0737 92.8273 81.1537 92.8211 81.2354 92.8235C82.5163 92.862 83.816 92.8453 85.098 92.7749C85.7554 92.7391 86.3177 93.2427 86.3537 93.8998C86.3895 94.557 85.887 95.1222 85.2288 95.1555C83.8799 95.2293 82.5124 95.2469 81.1645 95.2067C80.5063 95.1869 79.9887 94.6374 80.0085 93.9796C80.0257 93.4035 80.4492 92.935 80.9962 92.8407ZM95.2051 91.0781C95.798 90.9758 96.3848 91.3354 96.5528 91.9268C96.7329 92.5601 96.3656 93.2192 95.7324 93.3999C94.4359 93.7685 93.106 94.0862 91.7796 94.3433C91.7715 94.3452 91.763 94.3466 91.7548 94.3481C91.1174 94.458 90.5065 94.0384 90.3825 93.4007C90.2571 92.7542 90.6791 92.1286 91.3255 92.0034C92.5853 91.7587 93.8485 91.4567 95.0803 91.1063C95.1218 91.0947 95.1636 91.0852 95.2051 91.0781Z" fill="url(#paint2_linear_1137_10715)"/>
<path opacity="0.3" d="M62.8444 88.5213C63.0756 88.4814 63.3212 88.5089 63.5501 88.616C64.1069 88.8762 64.6784 89.1287 65.2489 89.3677C65.8562 89.6216 66.1427 90.3201 65.8885 90.9272C65.6347 91.5348 64.936 91.8219 64.3287 91.5667C63.7286 91.3158 63.1276 91.0499 62.5416 90.7763C61.9452 90.4979 61.6872 89.7881 61.9657 89.1921C62.1373 88.8241 62.4727 88.5854 62.8444 88.5213Z" fill="url(#paint3_linear_1137_10715)"/>
</g>
<g opacity="0.3">
<path opacity="0.3" d="M38.5341 61.5094C39.101 61.4117 39.671 61.7368 39.8633 62.2984C40.0621 62.8798 40.2765 63.467 40.5006 64.0431C40.7393 64.6569 40.4352 65.3477 39.8217 65.5862C39.2056 65.8257 38.5171 65.5206 38.2786 64.9073C38.0428 64.3007 37.8169 63.6824 37.6075 63.0702C37.3944 62.4473 37.7266 61.7696 38.3494 61.5564C38.4105 61.5355 38.4724 61.5201 38.5341 61.5094Z" fill="url(#paint4_linear_1137_10715)"/>
<path opacity="0.3" d="M74.5128 0.702742C75.0533 0.609575 75.5975 0.525173 76.1451 0.449537C76.7973 0.359804 77.399 0.815427 77.489 1.4676C77.579 2.11977 77.1204 2.72422 76.4712 2.81161C75.2073 2.9861 73.9534 3.21138 72.7302 3.48465C72.0869 3.62725 71.4505 3.22385 71.3069 2.58144C71.1633 1.93867 71.5679 1.30132 72.2103 1.15791C72.967 0.988748 73.7417 0.83576 74.5128 0.702742ZM82.4236 0.0174037C82.4892 0.00610796 82.5569 0.000147834 82.6259 5.74679e-05C83.9559 -0.00202094 85.3008 0.0522856 86.623 0.161628C87.279 0.215848 87.767 0.791749 87.7128 1.44744C87.6585 2.10368 87.0817 2.59337 86.4266 2.53725C85.1707 2.43351 83.8932 2.3821 82.6292 2.38372C81.971 2.38481 81.4366 1.85183 81.4356 1.19379C81.4348 0.60424 81.8617 0.114366 82.4236 0.0174037ZM66.198 2.94707C66.7519 2.85155 67.3127 3.15978 67.5162 3.70541C67.7462 4.32252 67.4324 5.00885 66.8156 5.2391C65.6355 5.67882 64.4584 6.1752 63.3164 6.71523C62.7207 6.99572 62.0105 6.74207 61.7293 6.14701C61.4481 5.5515 61.7025 4.84095 62.2978 4.55964C63.5003 3.99124 64.7403 3.46847 65.9829 3.00508C66.0539 2.9786 66.126 2.95954 66.198 2.94707ZM92.5846 1.12782C92.7337 1.10216 92.8902 1.10496 93.0469 1.13984C94.3436 1.42982 95.6436 1.77873 96.9105 2.17688C97.5385 2.37433 97.8875 3.04322 97.6901 3.67117C97.4928 4.29957 96.8241 4.64874 96.1956 4.45102C94.9926 4.07302 93.7583 3.74165 92.5267 3.4664C91.8842 3.32308 91.4799 2.68537 91.6235 2.04314C91.7321 1.55742 92.1229 1.20752 92.5846 1.12782ZM57.0825 7.55265C57.5368 7.47439 58.0152 7.66488 58.2835 8.07559C58.6436 8.62673 58.4888 9.36548 57.9375 9.72567C56.8837 10.4139 55.8446 11.1573 54.8487 11.9348C54.3299 12.3399 53.5806 12.248 53.1754 11.7286C52.7706 11.2097 52.8628 10.4611 53.3817 10.0559C54.43 9.23716 55.524 8.45459 56.6336 7.72976C56.7741 7.63795 56.927 7.57949 57.0825 7.55265ZM49.1981 14.0471C49.5613 13.9845 49.9484 14.0906 50.2328 14.3671C50.7046 14.8263 50.715 15.581 50.2558 16.0528C49.3755 16.9578 48.523 17.9105 47.722 18.884C47.3045 19.3931 46.5534 19.4663 46.0442 19.0476C45.5357 18.6293 45.4626 17.8784 45.8808 17.3696C46.7237 16.345 47.6208 15.3425 48.5474 14.3904C48.7295 14.203 48.9585 14.0884 49.1981 14.0471ZM42.9171 22.106C43.1934 22.0583 43.4872 22.1073 43.7447 22.266C44.3051 22.6111 44.4795 23.3456 44.1341 23.906C43.4711 24.9819 42.8462 26.097 42.277 27.2214C41.9797 27.8085 41.2631 28.0441 40.675 27.7463C40.0878 27.4488 39.8526 26.7318 40.1501 26.1442C40.7493 24.9613 41.4068 23.787 42.1044 22.6552C42.2912 22.3523 42.5917 22.162 42.9171 22.106ZM38.5434 31.3421C38.7348 31.3091 38.9368 31.3225 39.1334 31.3901C39.7559 31.6045 40.0863 32.2828 39.8719 32.9052C39.4603 34.0993 39.0953 35.3242 38.7868 36.5463C38.6256 37.1846 37.9767 37.5715 37.3395 37.4107C36.7011 37.2496 36.3142 36.6014 36.4753 35.963C36.8002 34.6757 37.1847 33.3856 37.6178 32.1286C37.7648 31.7027 38.1289 31.4136 38.5434 31.3421ZM36.3033 41.317C36.4109 41.2984 36.5229 41.2947 36.6368 41.3073C37.2911 41.3791 37.7633 41.9681 37.6911 42.6223C37.5535 43.8745 37.4673 45.1491 37.4355 46.4115C37.4188 47.0697 36.8699 47.5891 36.2137 47.5728C35.5556 47.5564 35.0354 47.0092 35.0521 46.351C35.0857 45.0223 35.1763 43.6803 35.3214 42.362C35.381 41.8214 35.7931 41.4049 36.3033 41.317ZM36.3091 51.5333C36.3333 51.5291 36.3577 51.5259 36.3822 51.5231C37.0365 51.4509 37.6256 51.9229 37.6976 52.5771C37.7994 53.5008 37.931 54.4321 38.0887 55.3462C38.1457 55.677 38.2066 56.0068 38.2704 56.3345C38.3963 56.9809 37.9746 57.607 37.3284 57.7327C36.6767 57.8729 36.0564 57.437 35.9304 56.7911C35.8631 56.4459 35.7994 56.0998 35.7393 55.7515C35.5736 54.7901 35.4351 53.81 35.3281 52.8385C35.2585 52.2088 35.6931 51.6396 36.3091 51.5333Z" fill="url(#paint5_linear_1137_10715)"/>
<path opacity="0.3" d="M102.278 4.46273C102.511 4.42243 102.759 4.45098 102.989 4.55969C103.572 4.83567 104.161 5.12917 104.738 5.43208C105.322 5.73796 105.546 6.45844 105.24 7.04139C104.934 7.62424 104.215 7.84953 103.631 7.54337C103.083 7.25565 102.523 6.97696 101.97 6.71481C101.375 6.43378 101.12 5.72305 101.402 5.12782C101.574 4.76301 101.908 4.52635 102.278 4.46273Z" fill="url(#paint6_linear_1137_10715)"/>
</g>
<path d="M103.042 18.3599C102.863 18.2039 102.604 18.1789 102.399 18.2977L96.5248 21.6855C93.7241 20.2078 90.6676 19.166 87.4506 18.646L84.7999 12.4096C84.707 12.1907 84.4854 12.0551 84.2483 12.0717L76.1346 12.6392C75.8974 12.6559 75.6971 12.8212 75.6354 13.0505L73.8788 19.5953C70.7654 20.5582 67.8838 22.0152 65.316 23.8685L59.0278 21.3312C58.8074 21.2423 58.5549 21.303 58.3989 21.4824L53.063 27.6209C52.9069 27.8004 52.8821 28.059 53.0008 28.2648L56.3886 34.1384C54.9109 36.9391 53.8692 39.9958 53.3492 43.2128L47.1126 45.8635C46.8939 45.9564 46.7583 46.1779 46.7748 46.4151L47.3423 54.5288C47.3589 54.7659 47.5241 54.9665 47.7536 55.0279L54.2985 56.7846C55.2613 59.898 56.7182 62.7797 58.5716 65.3473L56.0343 71.6357C55.9455 71.856 56.0061 72.1086 56.1855 72.2645L62.324 77.6005C62.5034 77.7565 62.762 77.7814 62.9679 77.6626L68.8417 74.2747C71.6423 75.7526 74.6989 76.7943 77.9159 77.3143L80.5666 83.5509C80.6596 83.7696 80.881 83.9053 81.1182 83.8887L89.232 83.3212C89.4692 83.3046 89.6695 83.1394 89.7311 82.9099L91.4878 76.3651C94.6011 75.4024 97.4829 73.9453 100.051 72.0919L106.339 74.6291C106.559 74.7182 106.812 74.6574 106.968 74.4781L112.303 68.3395C112.459 68.1601 112.484 67.9015 112.366 67.6957L108.978 61.822C110.456 59.0213 111.497 55.9646 112.017 52.7476L118.254 50.0969C118.472 50.0041 118.608 49.7825 118.592 49.5453L118.024 41.4319C118.008 41.1947 117.842 40.9942 117.613 40.9326L111.068 39.176C110.105 36.0627 108.648 33.1809 106.795 30.6132L109.332 24.3249C109.421 24.1045 109.36 23.8521 109.181 23.696L103.042 18.3599Z" fill="url(#paint7_linear_1137_10715)"/>
<path opacity="0.56" d="M81.2987 39.9228C85.2261 39.2455 89.1719 41.5346 90.4509 45.4315C91.8566 49.7151 89.5155 54.343 85.2323 55.7489C83.1572 56.4304 80.9413 56.2622 78.993 55.2765C77.0444 54.291 75.596 52.6054 74.9152 50.5304C73.5095 46.2468 75.8506 41.6189 80.1338 40.213C80.5199 40.0864 80.9094 39.9899 81.2987 39.9228ZM83.7355 54.1615C84.0388 54.1092 84.3399 54.0346 84.6377 53.9369C87.9217 52.8592 89.7165 49.3103 88.639 46.0265C87.5611 42.7424 84.013 40.9459 80.7284 42.0251C77.4444 43.1027 75.6496 46.6518 76.7271 49.9355C77.2493 51.5266 78.3596 52.8188 79.8537 53.5746C81.0682 54.1886 82.4183 54.3886 83.7355 54.1615Z" fill="white"/>
<path opacity="0.56" d="M79.1271 28.3132C79.8016 28.1969 80.486 28.1138 81.178 28.0654C81.3958 28.05 81.614 28.0383 81.8323 28.03C82.9085 27.9895 83.9862 28.0346 85.0489 28.1646C85.0634 28.1664 85.0779 28.1681 85.0923 28.1698C85.1334 28.1752 85.1744 28.1803 85.2155 28.186C85.2955 28.1963 85.3754 28.2075 85.4551 28.2188C85.6648 28.2488 85.823 28.411 85.8574 28.6092C85.8657 28.6573 85.8666 28.7078 85.8593 28.7586C85.822 29.0193 85.58 29.1995 85.3196 29.1626C83.9784 28.9701 82.6074 28.9211 81.2447 29.0168C74.4756 29.4892 68.766 33.4449 65.7446 39.0067C64.0636 42.0999 63.2148 45.6904 63.4783 49.4552C63.5243 50.1154 63.6034 50.7684 63.7146 51.4117C64.4619 55.7413 66.6571 59.6498 70.0178 62.5709C73.8781 65.9266 78.8142 67.5782 83.9164 67.2213C94.454 66.4832 102.42 57.3155 101.683 46.7829C101.637 46.1335 101.559 45.4888 101.449 44.8514C100.972 42.0896 99.8965 39.4628 98.2897 37.1634C98.2482 37.1039 98.2221 37.0385 98.2107 36.9715C98.1803 36.7953 98.2509 36.6087 98.4074 36.4996C98.6238 36.3493 98.9205 36.4006 99.0715 36.6175C100.758 39.0317 101.888 41.7895 102.389 44.6889C102.504 45.3578 102.586 46.0345 102.634 46.7161C103.408 57.7745 95.0375 67.3994 83.9831 68.1728C78.6265 68.5474 73.4449 66.8136 69.3922 63.2907C65.864 60.2241 63.5595 56.1209 62.7748 51.5756C62.6583 50.9002 62.5753 50.2146 62.5267 49.5219C62.1521 44.165 63.8858 38.9832 67.4084 34.9306C70.4763 31.4018 74.5808 29.0973 79.1271 28.3132Z" fill="white"/>
<g opacity="0.3">
<path opacity="0.3" d="M58.2367 63.5068C58.5506 63.4526 58.875 63.6074 59.0224 63.9082C59.2979 64.4692 59.5601 65.0463 59.8015 65.6232C59.9585 65.9982 59.7818 66.4292 59.4066 66.5866C59.0317 66.7454 58.6003 66.5666 58.4433 66.1917C58.2131 65.6419 57.9632 65.0918 57.7005 64.5563C57.5213 64.1918 57.6722 63.7507 58.037 63.571C58.1019 63.5396 58.169 63.5184 58.2367 63.5068Z" fill="url(#paint8_linear_1137_10715)"/>
<path opacity="0.3" d="M60.2547 68.7997C60.6223 68.7364 60.9858 68.9604 61.088 69.3273C61.3777 70.3638 61.6173 71.4269 61.8001 72.4869C61.8386 72.7101 61.8746 72.9344 61.9088 73.1598C61.9691 73.5624 61.6685 73.9257 61.2906 73.9982C60.8885 74.0588 60.5134 73.782 60.4526 73.3803C60.4202 73.1648 60.3858 72.9503 60.3491 72.7372C60.1747 71.7261 59.9461 70.712 59.6702 69.7235C59.5607 69.3316 59.7895 68.9259 60.1809 68.8161C60.2057 68.8097 60.2302 68.804 60.2547 68.7997ZM61.3941 76.3588C61.4285 76.3529 61.464 76.349 61.4995 76.3479C61.9062 76.3369 62.2448 76.6571 62.2562 77.0637C62.2929 78.3679 62.2487 79.6857 62.1252 80.9802C62.0867 81.3852 61.7251 81.681 61.3223 81.6433C60.9173 81.6043 60.6209 81.2456 60.6594 80.8404C60.7773 79.6053 60.8192 78.3483 60.7845 77.1045C60.7743 76.7342 61.0392 76.42 61.3941 76.3588ZM60.6666 83.9684C60.7587 83.9525 60.8552 83.9542 60.952 83.9753C61.3488 84.0638 61.5984 84.4578 61.51 84.8545C61.2257 86.1256 60.8594 87.3934 60.4196 88.6213C60.2824 89.0046 59.8622 89.2033 59.4781 89.0661C59.0955 88.9292 58.8963 88.5075 59.0331 88.125C59.4524 86.954 59.8022 85.746 60.0727 84.5334C60.14 84.2336 60.3814 84.0175 60.6666 83.9684ZM58.0905 91.1666C58.2408 91.1407 58.4 91.1613 58.5465 91.2347C58.9094 91.4179 59.0555 91.8611 58.8722 92.2239C58.284 93.3891 57.6188 94.5274 56.8939 95.6082C56.6671 95.9456 56.2094 96.0349 55.8724 95.8092C55.5347 95.5829 55.4445 95.1257 55.6709 94.7875C56.3619 93.7577 56.9969 92.6713 57.5574 91.5605C57.6668 91.3439 57.8684 91.205 58.0905 91.1666ZM53.8344 97.517C54.0442 97.4809 54.2682 97.5356 54.4419 97.6858C54.7491 97.9516 54.7826 98.4164 54.517 98.7242C53.664 99.7096 52.7424 100.652 51.7774 101.525C51.4758 101.799 51.0102 101.775 50.7374 101.473C50.4647 101.171 50.488 100.705 50.7894 100.433C51.7102 99.5999 52.5894 98.7012 53.403 97.7606C53.519 97.6269 53.6726 97.5449 53.8344 97.517ZM48.1669 102.641C48.4386 102.594 48.7259 102.703 48.8951 102.944C49.1287 103.277 49.048 103.736 48.7155 103.97C47.6487 104.718 46.5252 105.407 45.3762 106.017C45.0154 106.207 44.5713 106.071 44.3805 105.712C44.1899 105.353 44.3266 104.907 44.6856 104.716C45.7815 104.135 46.8524 103.478 47.8692 102.764C47.9613 102.699 48.0632 102.659 48.1669 102.641ZM41.4202 106.224C41.7603 106.165 42.1054 106.353 42.2326 106.687C42.3774 107.067 42.1865 107.492 41.8066 107.637C40.5927 108.1 39.334 108.492 38.065 108.804C37.6678 108.894 37.271 108.658 37.1745 108.263C37.0775 107.869 37.3192 107.47 37.7139 107.373C38.9247 107.076 40.1253 106.702 41.2826 106.261C41.328 106.244 41.3741 106.232 41.4202 106.224ZM30.1718 108.258C30.2135 108.251 30.257 108.247 30.3013 108.248C31.3746 108.253 32.4671 108.2 33.5486 108.089C33.7126 108.073 33.8733 108.056 34.0334 108.036C34.4375 107.988 34.8037 108.276 34.8518 108.68C34.9008 109.084 34.6114 109.463 34.2084 109.499C34.0374 109.519 33.8667 109.538 33.6949 109.554C32.5648 109.67 31.4195 109.726 30.2939 109.72C29.8872 109.718 29.5595 109.387 29.5615 108.98C29.5633 108.618 29.8263 108.318 30.1718 108.258Z" fill="url(#paint9_linear_1137_10715)"/>
</g>
<g opacity="0.3">
<path opacity="0.3" d="M24.6388 46.6603C25.0349 46.592 25.4137 46.8549 25.4875 47.2515C25.5619 47.651 25.298 48.0358 24.8982 48.1097C23.6947 48.3333 22.4946 48.6323 21.3313 48.9984C20.9448 49.1163 20.5299 48.9055 20.4078 48.5172C20.2857 48.1289 20.5016 47.716 20.8891 47.5937C22.1093 47.2104 23.3673 46.8963 24.6288 46.6619C24.632 46.6615 24.6356 46.6608 24.6388 46.6603ZM28.3766 46.1958C28.4029 46.1912 28.4289 46.1882 28.4559 46.1865C29.7351 46.1045 31.0322 46.0997 32.3111 46.1717C32.7171 46.195 33.0275 46.542 33.0046 46.948C32.9821 47.3547 32.6319 47.6638 32.2284 47.6422C31.008 47.5733 29.7703 47.5781 28.5496 47.6558C28.1441 47.682 27.7941 47.3739 27.7682 46.9684C27.7439 46.5887 28.0111 46.2588 28.3766 46.1958ZM17.4685 48.9183C17.7902 48.8628 18.1213 49.0275 18.2633 49.3386C18.4318 49.7079 18.2688 50.1446 17.8989 50.3134C16.7846 50.8222 15.6921 51.4024 14.6514 52.0394C14.303 52.2505 13.8513 52.1424 13.6393 51.7952C13.4271 51.4488 13.5363 50.9951 13.8831 50.7828C14.9741 50.1153 16.1197 49.507 17.2877 48.9742C17.347 48.9472 17.4076 48.9288 17.4685 48.9183ZM35.8862 46.624C35.9687 46.6098 36.0551 46.6094 36.1424 46.6251C37.4045 46.8531 38.6652 47.1617 39.8891 47.5424C40.2775 47.6629 40.4943 48.0756 40.3737 48.4641C40.253 48.8511 39.8403 49.0683 39.4523 48.9484C38.2851 48.5857 37.0835 48.2918 35.8801 48.0739C35.4801 48.0013 35.2142 47.6183 35.2868 47.2183C35.3434 46.9058 35.59 46.6751 35.8862 46.624ZM11.0574 52.8424C11.3142 52.7981 11.5868 52.8919 11.7598 53.1102C12.0129 53.4291 11.9593 53.8921 11.6409 54.1448C10.6836 54.9037 9.76305 55.7293 8.90449 56.5997C8.61857 56.8899 8.15238 56.8921 7.86312 56.6064C7.57386 56.3207 7.57069 55.8543 7.85634 55.5649C8.75701 54.6531 9.72203 53.7869 10.7254 52.9909C10.8256 52.9115 10.9401 52.8626 11.0574 52.8424ZM5.77441 58.1902C5.97104 58.1563 6.18032 58.2019 6.3503 58.3331C6.67191 58.5819 6.7312 59.0444 6.48242 59.366C5.7332 60.3351 5.03629 61.3578 4.41114 62.4053C4.20258 62.755 3.75021 62.8688 3.40158 62.6604C3.05232 62.4521 2.93837 62.0004 3.14666 61.6515C3.80209 60.5529 4.53242 59.4807 5.31743 58.4652C5.43454 58.3138 5.59946 58.2203 5.77441 58.1902ZM1.92438 64.65C2.06246 64.6262 2.20884 64.6411 2.34674 64.7026C2.71878 64.8668 2.88677 65.3019 2.72221 65.6739C2.22611 66.7933 1.79515 67.9534 1.44091 69.1211C1.32253 69.5093 0.911551 69.7297 0.522617 69.6114C0.133502 69.4932 -0.0861708 69.0824 0.0319372 68.6929C0.403792 67.4687 0.855618 66.2519 1.37531 65.0774C1.47914 64.8436 1.68988 64.6904 1.92438 64.65Z" fill="url(#paint10_linear_1137_10715)"/>
<path opacity="0.3" d="M43.1002 48.8662C43.2402 48.842 43.3885 48.8581 43.5277 48.9209C44.1021 49.18 44.6712 49.4576 45.2199 49.7452C45.5797 49.9342 45.7188 50.3794 45.5301 50.7395C45.3405 51.0983 44.8962 51.2377 44.5358 51.0496C44.0128 50.775 43.4696 50.5104 42.9216 50.2627C42.5509 50.0955 42.3864 49.6591 42.5537 49.2889C42.6583 49.0578 42.8675 48.9064 43.1002 48.8662Z" fill="url(#paint11_linear_1137_10715)"/>
</g>
<path d="M44.1134 58.3453C43.9935 58.2411 43.8204 58.2242 43.6826 58.3038L39.7521 60.5708C37.878 59.582 35.8328 58.8848 33.6801 58.5368L31.9064 54.3636C31.8442 54.2173 31.696 54.1265 31.5373 54.1376L26.1081 54.5173C25.9494 54.5285 25.8153 54.639 25.774 54.7925L24.5986 59.172C22.5152 59.8163 20.5869 60.7913 18.8688 62.0314L14.661 60.3336C14.5135 60.2742 14.3445 60.3148 14.2402 60.4348L10.6696 64.5423C10.5654 64.6624 10.5486 64.8355 10.6281 64.9732L12.8951 68.9037C11.9062 70.7777 11.2091 72.8231 10.8611 74.9758L6.68794 76.7494C6.54155 76.8117 6.45074 76.9599 6.46185 77.1185L6.84166 82.5479C6.85278 82.7066 6.96328 82.8407 7.11691 82.8818L11.4964 84.0574C12.1406 86.1407 13.1157 88.0691 14.3557 89.7871L12.658 93.995C12.5985 94.1424 12.6391 94.3114 12.7591 94.4157L16.8667 97.9863C16.9867 98.0907 17.1598 98.1073 17.2975 98.0279L21.2281 95.7608C23.1021 96.7498 25.1474 97.4468 27.3001 97.7948L29.0738 101.968C29.1361 102.114 29.2842 102.205 29.4428 102.194L34.8723 101.814C35.0309 101.803 35.165 101.693 35.2063 101.539L36.3817 97.1597C38.465 96.5154 40.3935 95.5404 42.1116 94.3002L46.3193 95.998C46.4668 96.0576 46.6359 96.0169 46.7402 95.8969L50.3107 91.7893C50.415 91.6693 50.4318 91.4963 50.3524 91.3585L48.0854 87.428C49.0742 85.5539 49.7712 83.5086 50.1192 81.3559L54.2925 79.5822C54.4388 79.52 54.5297 79.3718 54.5184 79.2131L54.1388 73.7839C54.1277 73.6252 54.0172 73.4911 53.8635 73.4499L49.4841 72.2743C48.8398 70.191 47.8648 68.2627 46.6247 66.5446L48.3225 62.3368C48.382 62.1892 48.3414 62.0203 48.2214 61.9159L44.1134 58.3453Z" fill="url(#paint12_linear_1137_10715)"/>
<path opacity="0.56" d="M29.5558 72.6745C30.7262 72.4727 31.9257 72.6502 33.0047 73.196C34.332 73.8675 35.3184 75.0158 35.7821 76.4292C36.7396 79.3458 35.1453 82.4983 32.2277 83.4567C29.3045 84.4103 26.157 82.819 25.1996 79.9016C24.7355 78.4881 24.8498 76.9787 25.5214 75.6517C26.1927 74.3242 27.3409 73.3375 28.7548 72.874C29.0189 72.7875 29.2869 72.7208 29.5558 72.6745ZM31.1848 82.2029C31.38 82.1692 31.5749 82.121 31.7686 82.0577C33.9146 81.3527 35.0874 79.0339 34.3831 76.8879C34.0418 75.8487 33.3164 75.0034 32.3402 74.5101C31.3634 74.016 30.2536 73.9331 29.2134 74.273C28.1739 74.6142 27.329 75.3401 26.8352 76.3159C26.3413 77.2928 26.2573 78.403 26.5986 79.4429C27.2392 81.395 29.2169 82.5423 31.1848 82.2029Z" fill="white"/>
<path opacity="0.56" d="M28.0537 64.5941C28.5128 64.5149 28.9796 64.4585 29.4538 64.4249C30.3956 64.3588 31.3452 64.3884 32.2783 64.5134C32.3202 64.5192 32.362 64.5252 32.404 64.5311C32.7278 64.5774 32.9721 64.8278 33.0252 65.1338C33.0381 65.2082 33.0394 65.2861 33.0282 65.3646C32.9706 65.767 32.5968 66.0445 32.195 65.9883C31.3248 65.8633 30.4373 65.8319 29.5573 65.8938L29.5569 65.8939C29.5086 65.8971 29.46 65.9012 29.4121 65.905C27.3304 66.0707 25.3687 66.749 23.6645 67.8601C22.7394 68.4633 21.8902 69.1949 21.1393 70.0429C21.1333 70.0498 21.1271 70.0567 21.121 70.0636C21.1025 70.0851 21.0837 70.1058 21.0655 70.1272C18.8934 72.6264 17.824 75.8218 18.0551 79.1249C18.0847 79.5524 18.1361 79.9748 18.2078 80.3914C18.6917 83.1943 20.1129 85.7246 22.2887 87.6161C24.7879 89.7883 27.9833 90.8569 31.286 90.6258C34.5867 90.3938 37.6045 88.8912 39.7772 86.3925C41.9493 83.8935 43.0187 80.698 42.7875 77.3949C42.7585 76.9746 42.7077 76.5571 42.6365 76.1449C42.3278 74.3566 41.6315 72.6564 40.5912 71.168C40.5271 71.0761 40.4867 70.9752 40.4692 70.8717C40.4223 70.5996 40.5314 70.3115 40.7728 70.143C41.1067 69.911 41.565 69.991 41.7984 70.3252C42.9622 71.9907 43.7416 73.8932 44.0873 75.8933C44.167 76.3552 44.2237 76.8218 44.2566 77.292C44.515 80.988 43.3189 84.5628 40.8882 87.359C38.4578 90.1545 35.0866 91.839 31.389 92.0951C27.6934 92.3538 24.1186 91.158 21.3226 88.727C18.8883 86.6115 17.2983 83.7806 16.7572 80.6447C16.677 80.1793 16.6194 79.7061 16.5859 79.2283C16.0862 72.0731 21.1322 65.7878 28.0537 64.5941Z" fill="white"/>
<path d="M240.974 136.081C249.989 136.081 257.296 128.774 257.296 119.759C257.296 110.745 249.989 103.438 240.974 103.438C231.96 103.438 224.652 110.745 224.652 119.759C224.652 128.774 231.96 136.081 240.974 136.081Z" fill="url(#paint13_linear_1137_10715)"/>
<path d="M225.929 119.265C225.924 119.265 225.918 119.265 225.913 119.265C225.745 119.256 225.617 119.113 225.625 118.946C225.659 118.298 225.735 117.649 225.849 117.015C225.879 116.85 226.035 116.741 226.202 116.77C226.367 116.8 226.476 116.958 226.446 117.123C226.337 117.731 226.264 118.355 226.232 118.978C226.223 119.14 226.089 119.265 225.929 119.265Z" fill="white"/>
<path d="M227.515 113.285C227.469 113.285 227.423 113.275 227.379 113.252C227.229 113.177 227.169 112.994 227.245 112.845C229.876 107.63 235.138 104.391 240.974 104.391C241.906 104.391 242.839 104.475 243.747 104.64C243.912 104.67 244.022 104.828 243.991 104.994C243.961 105.159 243.803 105.269 243.638 105.238C242.766 105.079 241.869 104.998 240.974 104.998C235.368 104.998 230.315 108.109 227.787 113.118C227.733 113.224 227.626 113.285 227.515 113.285Z" fill="white"/>
<path opacity="0.78" d="M241.33 133.93C248.96 133.93 255.145 127.745 255.145 120.115C255.145 112.486 248.96 106.301 241.33 106.301C233.701 106.301 227.516 112.486 227.516 120.115C227.516 127.745 233.701 133.93 241.33 133.93Z" fill="white"/>
<path d="M245.56 114.897C245.56 117.236 243.663 119.762 241.324 119.762C238.985 119.762 237.089 117.236 237.089 114.897C237.089 112.558 238.985 110.898 241.324 110.898C243.663 110.898 245.56 112.558 245.56 114.897Z" fill="url(#paint14_linear_1137_10715)"/>
<path d="M236.068 128.765H246.407C247.495 128.765 248.459 128.061 248.791 127.025L249.347 125.286C249.754 124.013 249.092 122.634 247.836 122.175C243.629 120.637 239.278 120.834 234.821 122.317C233.572 122.732 232.879 124.068 233.224 125.338L233.652 126.917C233.948 128.008 234.938 128.765 236.068 128.765Z" fill="url(#paint15_linear_1137_10715)"/>
<path d="M224.325 164.339C233.339 164.339 240.647 157.032 240.647 148.017C240.647 139.003 233.339 131.695 224.325 131.695C215.311 131.695 208.003 139.003 208.003 148.017C208.003 157.032 215.311 164.339 224.325 164.339Z" fill="url(#paint16_linear_1137_10715)"/>
<path d="M209.279 147.52C209.273 147.52 209.268 147.52 209.262 147.519C209.095 147.511 208.966 147.368 208.975 147.2C209.009 146.554 209.084 145.904 209.198 145.27C209.228 145.105 209.386 144.994 209.551 145.025C209.716 145.055 209.826 145.212 209.796 145.378C209.686 145.987 209.614 146.611 209.581 147.232C209.573 147.394 209.439 147.52 209.279 147.52Z" fill="white"/>
<path d="M210.866 141.542C210.82 141.542 210.773 141.532 210.729 141.51C210.58 141.434 210.52 141.251 210.595 141.102C213.227 135.888 218.488 132.648 224.325 132.648C225.258 132.648 226.191 132.732 227.098 132.898C227.263 132.928 227.372 133.086 227.342 133.251C227.312 133.416 227.154 133.528 226.989 133.495C226.117 133.336 225.221 133.256 224.325 133.256C218.719 133.256 213.666 136.367 211.137 141.375C211.084 141.481 210.977 141.542 210.866 141.542Z" fill="white"/>
<path opacity="0.78" d="M224.681 162.188C232.31 162.188 238.495 156.003 238.495 148.373C238.495 140.744 232.31 134.559 224.681 134.559C217.051 134.559 210.866 140.744 210.866 148.373C210.866 156.003 217.051 162.188 224.681 162.188Z" fill="white"/>
<path d="M228.91 143.151C228.91 145.49 227.014 148.015 224.675 148.015C222.336 148.015 220.439 145.49 220.439 143.151C220.439 140.812 222.336 139.152 224.675 139.152C227.014 139.152 228.91 140.812 228.91 143.151Z" fill="url(#paint17_linear_1137_10715)"/>
<path d="M219.418 157.023H229.758C230.846 157.023 231.81 156.319 232.141 155.283L232.698 153.544C233.105 152.27 232.443 150.892 231.187 150.433C226.979 148.894 222.629 149.092 218.172 150.575C216.923 150.99 216.23 152.326 216.574 153.596L217.003 155.175C217.299 156.266 218.288 157.023 219.418 157.023Z" fill="url(#paint18_linear_1137_10715)"/>
<path d="M257.537 164.339C266.551 164.339 273.859 157.032 273.859 148.017C273.859 139.003 266.551 131.695 257.537 131.695C248.522 131.695 241.215 139.003 241.215 148.017C241.215 157.032 248.522 164.339 257.537 164.339Z" fill="url(#paint19_linear_1137_10715)"/>
<path d="M242.491 147.52C242.486 147.52 242.481 147.52 242.475 147.519C242.308 147.511 242.179 147.368 242.188 147.2C242.222 146.552 242.297 145.903 242.411 145.27C242.441 145.105 242.598 144.994 242.764 145.025C242.929 145.055 243.039 145.212 243.009 145.378C242.899 145.986 242.827 146.61 242.794 147.232C242.786 147.394 242.652 147.52 242.491 147.52Z" fill="white"/>
<path d="M244.078 141.542C244.032 141.542 243.985 141.532 243.941 141.51C243.791 141.434 243.731 141.251 243.807 141.102C246.439 135.888 251.7 132.648 257.537 132.648C258.469 132.648 259.402 132.732 260.31 132.898C260.475 132.928 260.584 133.086 260.554 133.251C260.524 133.416 260.366 133.528 260.201 133.495C259.329 133.336 258.433 133.256 257.537 133.256C251.931 133.256 246.878 136.367 244.349 141.375C244.296 141.481 244.189 141.542 244.078 141.542Z" fill="white"/>
<path opacity="0.78" d="M257.893 162.188C265.522 162.188 271.707 156.003 271.707 148.373C271.707 140.744 265.522 134.559 257.893 134.559C250.263 134.559 244.078 140.744 244.078 148.373C244.078 156.003 250.263 162.188 257.893 162.188Z" fill="white"/>
<path d="M262.122 143.151C262.122 145.49 260.226 148.015 257.887 148.015C255.548 148.015 253.651 145.49 253.651 143.151C253.651 140.812 255.548 139.152 257.887 139.152C260.226 139.152 262.122 140.812 262.122 143.151Z" fill="url(#paint20_linear_1137_10715)"/>
<path d="M252.631 157.023H262.97C264.059 157.023 265.022 156.319 265.354 155.283L265.91 153.544C266.318 152.27 265.656 150.892 264.4 150.433C260.192 148.894 255.841 149.092 251.384 150.575C250.136 150.99 249.443 152.326 249.787 153.596L250.216 155.175C250.512 156.266 251.501 157.023 252.631 157.023Z" fill="url(#paint21_linear_1137_10715)"/>
<path d="M187.477 174.657C187.411 173.67 186.414 172.803 184.717 172.096C186.584 171.098 187.624 170.015 187.551 168.939C187.331 165.684 177.055 163.728 164.599 164.571C152.144 165.414 142.226 168.737 142.446 171.992C142.513 172.98 143.509 173.846 145.207 174.553C143.339 175.552 142.3 176.634 142.372 177.71C142.439 178.698 143.436 179.564 145.133 180.271C143.266 181.27 142.226 182.352 142.299 183.428C142.366 184.415 143.362 185.282 145.06 185.989C143.192 186.987 142.153 188.07 142.225 189.146C142.323 190.586 144.39 191.771 147.739 192.572C147.682 193.635 147.692 194.8 147.779 196.087C148.189 202.086 154.869 206.872 163.785 206.987C172.7 207.101 180.499 200.794 180.664 194.783C180.705 193.31 180.659 192.013 180.54 190.858C184.825 189.489 187.445 187.782 187.331 186.092C187.264 185.105 186.267 184.238 184.57 183.532C186.437 182.533 187.477 181.451 187.404 180.375C187.337 179.387 186.34 178.521 184.643 177.814C186.51 176.816 187.55 175.733 187.477 174.657Z" fill="url(#paint22_linear_1137_10715)"/>
<path d="M158.462 194.004C154.767 193.957 151.389 193.641 148.602 193.07C148.44 193.037 148.336 192.879 148.369 192.718C148.403 192.556 148.56 192.452 148.722 192.485C153.083 193.378 158.919 193.638 165.156 193.216C170.26 192.87 175.038 192.109 178.975 191.015C179.134 190.971 179.299 191.064 179.343 191.223C179.387 191.382 179.294 191.547 179.135 191.591C175.16 192.696 170.34 193.464 165.197 193.812C162.88 193.968 160.617 194.032 158.462 194.004Z" fill="url(#paint23_linear_1137_10715)"/>
<path d="M158.598 188.281C153.797 188.219 149.512 187.712 146.497 186.812C146.339 186.764 146.249 186.598 146.296 186.44C146.343 186.282 146.509 186.192 146.668 186.239C150.964 187.522 157.903 187.992 165.23 187.497C172.477 187.006 179.248 185.624 183.342 183.799C183.493 183.732 183.669 183.8 183.737 183.951C183.804 184.101 183.736 184.278 183.585 184.345C179.431 186.197 172.584 187.598 165.27 188.093C162.988 188.248 160.741 188.309 158.598 188.281Z" fill="url(#paint24_linear_1137_10715)"/>
<path d="M158.61 182.566C153.426 182.499 148.896 181.91 145.856 180.864C145.7 180.811 145.617 180.641 145.671 180.484C145.724 180.328 145.894 180.245 146.05 180.299C150.282 181.755 157.479 182.307 165.303 181.778C172.55 181.287 179.321 179.905 183.415 178.08C183.566 178.014 183.743 178.081 183.81 178.232C183.877 178.382 183.81 178.559 183.659 178.626C179.504 180.478 172.657 181.879 165.344 182.374C163.026 182.531 160.762 182.594 158.61 182.566Z" fill="url(#paint25_linear_1137_10715)"/>
<path d="M158.724 176.847C154.611 176.794 150.876 176.413 147.976 175.73C147.816 175.692 147.716 175.531 147.754 175.37C147.792 175.209 147.954 175.11 148.114 175.148C152.473 176.176 158.766 176.508 165.377 176.061C172.559 175.575 179.295 174.208 183.396 172.404C183.547 172.338 183.724 172.406 183.79 172.558C183.857 172.709 183.788 172.885 183.637 172.952C179.476 174.781 172.665 176.167 165.418 176.657C163.128 176.812 160.874 176.874 158.724 176.847Z" fill="url(#paint26_linear_1137_10715)"/>
<path d="M134.439 145.106C132.996 139.734 130.494 134.699 127.093 130.297C119.806 120.867 107.966 101.725 106.812 75.7946C105.134 38.077 138.803 19.6377 169.272 22.5918C199.742 25.5458 229.547 48.6444 225.801 83.6651C223.496 105.213 211.21 121.422 202.098 130.705C196.312 136.599 192.146 143.856 189.839 151.787C187.016 161.494 180.438 173.551 165.167 174.095C145.406 174.798 137.44 156.285 134.439 145.106Z" fill="url(#paint27_linear_1137_10715)"/>
<path d="M170.308 166.642L181.874 97.3634C182.113 95.9322 182.831 94.9781 183.478 95.2325C184.125 95.4869 184.456 96.8535 184.217 98.2848C184.21 98.3229 184.202 98.37 184.195 98.4075L171.153 167.022C171.055 167.538 170.788 167.861 170.557 167.744C170.333 167.63 170.225 167.142 170.308 166.642Z" fill="url(#paint28_linear_1137_10715)"/>
<path d="M159.222 167.053L149.443 97.5001C149.241 96.0631 148.547 95.091 147.894 95.3287C147.241 95.5665 146.875 96.924 147.077 98.3609C147.082 98.3991 147.09 98.4465 147.096 98.4841L158.368 167.412C158.453 167.93 158.711 168.26 158.945 168.149C159.172 168.041 159.292 167.555 159.222 167.053Z" fill="url(#paint29_linear_1137_10715)"/>
<path d="M181.874 91.4026C181.609 90.9633 180.984 90.7923 180.478 91.0208L174.5 93.7212L172.512 87.8169C172.407 87.5088 172.158 87.2336 171.799 87.0804C171.119 86.7898 170.298 87.0315 169.966 87.6198L169.955 87.6386L164.953 96.4869L160.581 83.7434L160.574 83.7222C160.467 83.4113 160.236 83.13 159.897 82.9394C159.142 82.5145 158.135 82.6994 157.648 83.3525L150.694 92.6703C150.411 93.0523 150.5 93.57 150.92 93.8604C151.367 94.1704 152.019 94.108 152.375 93.7212L158.477 87.088L163.738 99.2251L163.742 99.2345C163.826 99.4286 163.987 99.5993 164.213 99.7083C164.718 99.9529 165.355 99.7968 165.635 99.3598L170.97 91.0394L172.883 95.3071L172.9 95.3451C172.913 95.3757 172.929 95.4061 172.947 95.4358C173.213 95.8748 173.837 96.0456 174.342 95.8174L181.439 92.6121C181.945 92.3832 182.14 91.8419 181.874 91.4026Z" fill="white"/>
<path d="M202.464 120.86C202.368 120.86 202.271 120.83 202.188 120.767C201.988 120.614 201.95 120.328 202.102 120.129C203.971 117.678 205.688 115.141 207.208 112.586C207.336 112.37 207.616 112.298 207.832 112.428C208.048 112.556 208.119 112.836 207.991 113.052C206.453 115.636 204.716 118.203 202.827 120.681C202.737 120.798 202.601 120.86 202.464 120.86Z" fill="white"/>
<path d="M211.439 105.905C211.376 105.905 211.313 105.892 211.252 105.865C211.023 105.762 210.92 105.492 211.024 105.263C217.17 91.5905 217.408 79.0806 216.524 70.9939C215.566 62.2221 213.119 56.6136 213.095 56.5582C212.993 56.328 213.097 56.0591 213.327 55.9574C213.556 55.8548 213.826 55.9594 213.928 56.1892C213.953 56.2459 216.448 61.9561 217.426 70.8577C218.327 79.0654 218.092 91.7615 211.855 105.636C211.779 105.805 211.613 105.905 211.439 105.905Z" fill="white"/>
<path d="M138.096 135.674H33.8898C33.1492 135.674 32.5488 135.074 32.5488 134.334V75.1339C32.5488 74.3934 33.1492 73.793 33.8898 73.793H138.096C138.837 73.793 139.437 74.3934 139.437 75.1339V134.334C139.437 135.074 138.837 135.674 138.096 135.674Z" fill="url(#paint30_linear_1137_10715)"/>
<path opacity="0.41" d="M134.369 134.609H37.3516C36.6272 134.609 36.04 134.022 36.04 133.297V76.9523C36.04 76.2278 36.6272 75.6406 37.3516 75.6406H134.369C135.093 75.6406 135.68 76.2278 135.68 76.9523V133.297C135.68 134.022 135.093 134.609 134.369 134.609Z" fill="white"/>
<g opacity="0.67">
<path opacity="0.67" d="M48.7117 91.4336H41.668V132.073H48.7117V91.4336Z" fill="white"/>
</g>
<g opacity="0.67">
<path opacity="0.67" d="M58.1707 91.4336H51.127V132.073H58.1707V91.4336Z" fill="white"/>
</g>
<g opacity="0.67">
<path opacity="0.67" d="M67.1521 91.4336H60.1084V132.073H67.1521V91.4336Z" fill="white"/>
</g>
<g opacity="0.67">
<path opacity="0.67" d="M76.6112 91.4336H69.5674V132.073H76.6112V91.4336Z" fill="white"/>
</g>
<g opacity="0.67">
<path opacity="0.67" d="M85.8738 91.4336H78.8301V132.073H85.8738V91.4336Z" fill="white"/>
</g>
<g opacity="0.67">
<path opacity="0.67" d="M95.3328 91.4336H88.2891V132.073H95.3328V91.4336Z" fill="white"/>
</g>
<g opacity="0.67">
<path opacity="0.67" d="M104.761 91.4336H97.7168V132.073H104.761V91.4336Z" fill="white"/>
</g>
<g opacity="0.67">
<path opacity="0.67" d="M114.22 91.4336H107.176V132.073H114.22V91.4336Z" fill="white"/>
</g>
<g opacity="0.67">
<path opacity="0.67" d="M123.482 91.4336H116.438V132.073H123.482V91.4336Z" fill="white"/>
</g>
<g opacity="0.67">
<path opacity="0.67" d="M132.942 91.4336H125.898V132.073H132.942V91.4336Z" fill="white"/>
</g>
<path d="M139.449 86.5807V77.5902C139.449 75.4536 137.929 73.5234 136.068 73.5234H35.7579C33.8969 73.5234 32.2578 75.4536 32.2578 77.5902V86.5807H139.449Z" fill="url(#paint31_linear_1137_10715)"/>
<path d="M48.7547 124.652H41.7109V132.074H48.7547V124.652Z" fill="url(#paint32_linear_1137_10715)"/>
<path d="M58.2137 122.109H51.1699V132.076H58.2137V122.109Z" fill="url(#paint33_linear_1137_10715)"/>
<path d="M67.1951 118.617H60.1514V132.076H67.1951V118.617Z" fill="url(#paint34_linear_1137_10715)"/>
<path d="M76.655 115.391H69.6113V132.073H76.655V115.391Z" fill="url(#paint35_linear_1137_10715)"/>
<path d="M85.9168 111.633H78.873V132.075H85.9168V111.633Z" fill="url(#paint36_linear_1137_10715)"/>
<path d="M95.3767 107.871H88.333V132.074H95.3767V107.871Z" fill="url(#paint37_linear_1137_10715)"/>
<path d="M104.803 104.379H97.7598V132.073H104.803V104.379Z" fill="url(#paint38_linear_1137_10715)"/>
<path d="M114.263 101.156H107.22V132.074H114.263V101.156Z" fill="url(#paint39_linear_1137_10715)"/>
<path d="M123.525 95.2461H116.481V132.073H123.525V95.2461Z" fill="url(#paint40_linear_1137_10715)"/>
<path d="M132.985 91.2188H125.941V132.074H132.985V91.2188Z" fill="url(#paint41_linear_1137_10715)"/>
<path d="M85.2953 99.3867C85.2953 99.3867 82.7325 100.633 82.2612 102.065C81.8831 103.214 79.0493 103.363 78.7693 105.622C78.6247 106.789 77.7614 107.723 76.5993 107.902C73.7049 108.345 69.2446 109.848 68.5309 114.873C67.9861 118.709 69.9415 120.163 71.9936 120.667C73.5008 121.037 74.5024 122.502 74.1975 124.024C73.9051 125.484 74.3412 127.171 76.8696 128.505C82.5357 131.495 88.1943 121.422 88.1943 121.422L89.3539 103.834L85.2953 99.3867Z" fill="url(#paint42_linear_1137_10715)"/>
<path d="M116.126 95.2148C116.126 95.2148 104.813 113.109 91.3604 116.566C91.3604 116.566 93.9817 124.032 96.005 124.886C96.005 124.886 112.556 111.076 116.809 97.7575L116.126 95.2148Z" fill="url(#paint43_linear_1137_10715)"/>
<path d="M62.0051 209.67L61.6384 212.684C61.5688 213.256 61.1187 213.708 60.5463 213.774C59.58 213.884 58.0293 213.997 56.5122 213.837C55.8463 213.767 55.414 213.092 55.6167 212.454C55.9866 211.29 56.6633 209.544 57.6388 208.516H60.9825C61.6008 208.516 62.0797 209.056 62.0051 209.67Z" fill="url(#paint44_linear_1137_10715)"/>
<path d="M88.1945 174.359L88.7589 177.679C88.7589 177.679 86.8689 196.823 86.5327 204.481C86.48 205.681 86.7906 206.868 87.4208 207.891L90.7071 213.227L82.3549 208.299L82.1886 207.28L83.5559 205.4L81.765 183.954C81.6598 182.694 81.9197 181.431 82.5138 180.315L84.2414 177.069L88.1945 174.359Z" fill="url(#paint45_linear_1137_10715)"/>
<path d="M91.257 213.999H88.5917C88.0928 213.999 87.6223 213.77 87.3181 213.374C86.4872 212.295 84.7656 210.188 83.9425 210.133C82.8343 210.059 82.9761 213.999 82.9761 213.999H82.3549L81.5681 209.103C81.3702 207.871 81.9827 206.651 83.0887 206.074C83.0887 206.074 83.342 207.947 84.7155 208.776C86.089 209.605 90.305 212.572 90.305 212.572C90.305 212.572 90.8213 212.499 91.3882 212.601C92.2291 212.753 92.1116 213.999 91.257 213.999Z" fill="url(#paint46_linear_1137_10715)"/>
<path d="M76.7546 175.934C76.7546 175.934 65.6827 196.937 63.9226 201.732C62.1626 206.527 61.5461 210.527 61.5224 210.906C61.4855 211.498 60.7493 212.066 58.7199 212.066C57.6726 212.066 57.1596 211.646 56.9085 211.24C56.6943 210.893 56.6831 210.459 56.8637 210.094C57.5041 208.798 59.5366 204.655 60.2895 202.777C61.1881 200.534 63.1214 190.368 64.1816 186.834C65.2419 183.3 66.4403 179.466 71.0574 175.934C71.0575 175.934 74.2269 172.83 76.7546 175.934Z" fill="url(#paint47_linear_1137_10715)"/>
<path d="M83.7493 141.523C86.6053 129.421 79.3701 122.576 79.3701 122.576C83.9355 118.193 92.2534 116.199 92.2534 116.199C92.2534 116.199 100.191 122.002 99.2489 126.544C98.6971 129.206 93.6699 142.489 93.6699 142.489C93.6699 142.489 89.0213 144.689 83.7493 141.523Z" fill="url(#paint48_linear_1137_10715)"/>
<path d="M77.4167 147.511C78.579 144.009 83.7491 141.52 83.7491 141.52C89.0211 144.686 93.6697 142.486 93.6697 142.486C93.6697 142.486 94.7122 146.471 93.9926 150.174C93.2731 153.877 88.7588 177.676 88.7588 177.676C81.6458 179.118 70.7061 176.226 70.7061 176.226C75.2366 168.182 76.2543 151.013 77.4167 147.511Z" fill="url(#paint49_linear_1137_10715)"/>
<path d="M87.0643 108.202L84.7422 118.632C84.5199 119.55 85.3574 119.4 86.2863 119.225C87.8074 118.938 89.7679 118.348 90.4233 117.164C90.49 117.043 90.5233 116.907 90.5421 116.771L91.5397 109.538C91.6188 108.964 91.3086 108.407 90.779 108.173L88.854 107.319C88.1128 106.991 87.2549 107.413 87.0643 108.202Z" fill="url(#paint50_linear_1137_10715)"/>
<path d="M91.512 98.6919C91.512 98.6919 93.984 100.365 95.0463 104.627C96.1085 108.888 94.3823 110.417 92.6127 110.323C90.8432 110.23 88.2775 109.682 86.0545 106.625C83.8315 103.568 88.2725 96.6471 91.512 98.6919Z" fill="url(#paint51_linear_1137_10715)"/>
<path d="M88.296 104.907C88.296 104.907 87.3902 98.8008 92.46 99.7348L93.4852 100.802C93.4852 100.802 95.9668 98.0074 93.2205 95.8949C90.4743 93.7824 86.6634 94.3233 84.5551 98.1692C82.4467 102.015 81.6815 104.718 83.4487 107.107C85.2159 109.497 86.5452 107.448 86.5452 107.448C86.5452 107.448 85.7347 105.379 86.4072 104.492C87.0797 103.604 87.9473 105.008 87.9473 105.008L88.296 104.907Z" fill="url(#paint52_linear_1137_10715)"/>
<path d="M87.6034 105.428C87.6034 105.428 87.1562 102.287 85.5517 103.185C83.9471 104.083 86.1299 106.12 87.0051 106.813L87.6034 105.428Z" fill="url(#paint53_linear_1137_10715)"/>
<path d="M116.049 98.9002C116.083 99.2694 114.71 99.5245 114.273 97.9509C114.394 97.2676 114.607 94.2759 115.131 93.8111C117.921 91.3355 122.896 88.5508 122.896 88.5508C123.452 89.4002 122.722 89.9598 122.722 89.9598L120.239 91.6358C120.498 92.4938 120.876 93.2524 120.919 94.2319C120.951 94.9737 120.677 95.7 120.185 96.2627C119.69 96.8275 119.025 97.5566 118.425 98.1102C117.29 99.158 116.049 98.9002 116.049 98.9002Z" fill="url(#paint54_linear_1137_10715)"/>
<path d="M117.398 97.6808L117.018 97.5246C117.068 97.4018 118.26 94.5059 118.837 93.9036C119.056 93.675 119.161 93.4793 119.152 93.3215C119.147 93.2361 119.104 93.1518 119.024 93.0659L117.015 94.1406L116.127 95.5302L115.781 95.309L116.726 93.8288L119.08 92.5703L119.186 92.6568C119.424 92.8514 119.547 93.0605 119.562 93.2963C119.579 93.5772 119.439 93.8686 119.134 94.1877C118.699 94.6412 117.733 96.8629 117.398 97.6808Z" fill="url(#paint55_linear_1137_10715)"/>
<path d="M86.337 147.906C86.3528 147.906 86.3687 147.907 86.3847 147.907L107.129 147.884C107.642 147.884 108.057 147.472 108.057 146.965C108.056 146.457 107.639 146.038 107.127 146.047L86.3826 146.069C85.8698 146.07 85.4545 146.482 85.4551 146.989C85.4556 147.481 85.8463 147.882 86.337 147.906Z" fill="url(#paint56_linear_1137_10715)"/>
<path d="M125.777 129.27H108.501C107.226 129.27 106.067 129.997 105.523 131.138L97.5361 147.894H119.006C119.827 147.894 120.565 147.398 120.867 146.642L127.06 131.136C127.418 130.24 126.751 129.27 125.777 129.27Z" fill="url(#paint57_linear_1137_10715)"/>
<path d="M113.606 137.86C113.232 139.011 113.509 140.129 114.224 140.357C114.94 140.585 115.823 139.837 116.198 138.686C116.572 137.535 116.295 136.417 115.58 136.189C114.864 135.961 113.981 136.71 113.606 137.86Z" fill="url(#paint58_linear_1137_10715)"/>
<path d="M79.3396 122.598C76.5092 125.454 72.9179 138.114 74.6997 140.229C76.2685 142.69 81.6101 146.041 86.6966 146.046H94.2014C91.0479 142.695 88.8767 141.845 86.2905 144.188C84.2385 143.312 81.5779 139.915 79.8019 138.399C79.1046 137.803 78.9401 136.788 79.4065 135.998C80.8172 133.61 82.5865 131.154 83.1492 128.776C83.2699 125.989 81.2074 122.799 79.3396 122.598Z" fill="url(#paint59_linear_1137_10715)"/>
<path opacity="0.57" d="M204.019 121.33C230.197 121.33 251.418 100.108 251.418 73.9304C251.418 47.7526 230.197 26.5312 204.019 26.5312C177.841 26.5312 156.62 47.7526 156.62 73.9304C156.62 100.108 177.841 121.33 204.019 121.33Z" fill="white"/>
<path d="M204.02 114.383C226.362 114.383 244.473 96.2717 244.473 73.9299C244.473 51.5882 226.362 33.4766 204.02 33.4766C181.678 33.4766 163.566 51.5882 163.566 73.9299C163.566 96.2717 181.678 114.383 204.02 114.383Z" fill="url(#paint60_linear_1137_10715)"/>
<path d="M204.02 116.052C180.793 116.052 161.896 97.1555 161.896 73.9282C161.896 50.7013 180.793 31.8047 204.02 31.8047C227.247 31.8047 246.144 50.7013 246.144 73.9282C246.144 97.1555 227.247 116.052 204.02 116.052ZM204.02 35.145C182.635 35.145 165.237 52.5431 165.237 73.9282C165.237 95.3137 182.635 112.712 204.02 112.712C225.405 112.712 242.803 95.3138 242.803 73.9282C242.803 52.5432 225.405 35.145 204.02 35.145Z" fill="white"/>
<path d="M204.02 98.5903C217.64 98.5903 228.682 87.5486 228.682 73.928C228.682 60.3073 217.64 49.2656 204.02 49.2656C190.399 49.2656 179.357 60.3073 179.357 73.928C179.357 87.5486 190.399 98.5903 204.02 98.5903Z" fill="url(#paint61_linear_1137_10715)"/>
<path d="M204.02 100.263C189.5 100.263 177.688 88.4497 177.688 73.93C177.688 59.4104 189.5 47.5977 204.02 47.5977C218.54 47.5977 230.352 59.4104 230.352 73.93C230.352 88.4498 218.54 100.263 204.02 100.263ZM204.02 50.9378C191.342 50.9378 181.028 61.2522 181.028 73.93C181.028 86.608 191.342 96.9223 204.02 96.9223C216.698 96.9223 227.012 86.608 227.012 73.93C227.012 61.2522 216.698 50.9378 204.02 50.9378Z" fill="white"/>
<path d="M204.02 83.4848C209.297 83.4848 213.575 79.2069 213.575 73.9299C213.575 68.6529 209.297 64.375 204.02 64.375C198.743 64.375 194.465 68.6529 194.465 73.9299C194.465 79.2069 198.743 83.4848 204.02 83.4848Z" fill="url(#paint62_linear_1137_10715)"/>
<path d="M204.02 85.1535C197.83 85.1535 192.795 80.1179 192.795 73.9282C192.795 67.7388 197.83 62.7031 204.02 62.7031C210.209 62.7031 215.245 67.7388 215.245 73.9282C215.245 80.1179 210.209 85.1535 204.02 85.1535ZM204.02 66.0434C199.672 66.0434 196.135 69.5806 196.135 73.9282C196.135 78.276 199.672 81.8132 204.02 81.8132C208.367 81.8132 211.905 78.276 211.905 73.9282C211.905 69.5806 208.367 66.0434 204.02 66.0434Z" fill="white"/>
<path d="M261.482 16.3203L262.759 17.5977L214.385 65.9721L213.107 64.6946L261.482 16.3203Z" fill="url(#paint63_linear_1137_10715)"/>
<path d="M214.012 61.6131C214.745 60.8803 218.2 64.3353 217.467 65.0681L204.653 75.1423C204.179 75.5145 203.566 74.901 203.938 74.4276L214.012 61.6131Z" fill="url(#paint64_linear_1137_10715)"/>
<path d="M262.731 17.625L269.239 18.2718L260.305 27.2059C257.378 30.133 253.292 31.5928 249.173 31.1835L262.731 17.625Z" fill="url(#paint65_linear_1137_10715)"/>
<path d="M261.454 16.3477L260.807 9.83984L251.873 18.7739C248.946 21.7011 247.486 25.7867 247.896 29.9061L261.454 16.3477Z" fill="url(#paint66_linear_1137_10715)"/>
<defs>
<linearGradient id="paint0_linear_1137_10715" x1="28.2871" y1="104.047" x2="278.084" y2="104.047" gradientUnits="userSpaceOnUse">
<stop stop-color="#2B3582"/>
<stop offset="1" stop-color="#150E42"/>
</linearGradient>
<linearGradient id="paint1_linear_1137_10715" x1="139.146" y1="261.184" x2="156.151" y2="49.2299" gradientUnits="userSpaceOnUse">
<stop stop-color="#A737D5"/>
<stop offset="1" stop-color="#EF497A"/>
</linearGradient>
<linearGradient id="paint2_linear_1137_10715" x1="133.091" y1="59.979" x2="66.0871" y2="71.5373" gradientUnits="userSpaceOnUse">
<stop stop-color="#B37CFF"/>
<stop offset="1" stop-color="#F895E7"/>
</linearGradient>
<linearGradient id="paint3_linear_1137_10715" x1="65.874" y1="89.7446" x2="61.9609" y2="90.4196" gradientUnits="userSpaceOnUse">
<stop stop-color="#B37CFF"/>
<stop offset="1" stop-color="#F895E7"/>
</linearGradient>
<linearGradient id="paint4_linear_1137_10715" x1="40.4051" y1="63.3485" x2="37.7199" y2="63.8117" gradientUnits="userSpaceOnUse">
<stop stop-color="#B37CFF"/>
<stop offset="1" stop-color="#F895E7"/>
</linearGradient>
<linearGradient id="paint5_linear_1137_10715" x1="100.893" y1="21.4604" x2="31.8777" y2="33.3657" gradientUnits="userSpaceOnUse">
<stop stop-color="#B37CFF"/>
<stop offset="1" stop-color="#F895E7"/>
</linearGradient>
<linearGradient id="paint6_linear_1137_10715" x1="105.264" y1="5.7298" x2="101.4" y2="6.3962" gradientUnits="userSpaceOnUse">
<stop stop-color="#B37CFF"/>
<stop offset="1" stop-color="#F895E7"/>
</linearGradient>
<linearGradient id="paint7_linear_1137_10715" x1="87.1424" y1="21.7592" x2="71.9594" y2="111.035" gradientUnits="userSpaceOnUse">
<stop stop-color="#CB236D"/>
<stop offset="1" stop-color="#4C246D"/>
</linearGradient>
<linearGradient id="paint8_linear_1137_10715" x1="59.6968" y1="64.9057" x2="57.7871" y2="65.2351" gradientUnits="userSpaceOnUse">
<stop stop-color="#B37CFF"/>
<stop offset="1" stop-color="#F895E7"/>
</linearGradient>
<linearGradient id="paint9_linear_1137_10715" x1="64.1704" y1="86.2284" x2="26.7389" y2="92.6853" gradientUnits="userSpaceOnUse">
<stop stop-color="#B37CFF"/>
<stop offset="1" stop-color="#F895E7"/>
</linearGradient>
<linearGradient id="paint10_linear_1137_10715" x1="41.277" y1="53.2257" x2="-1.44461" y2="60.5953" gradientUnits="userSpaceOnUse">
<stop stop-color="#B37CFF"/>
<stop offset="1" stop-color="#F895E7"/>
</linearGradient>
<linearGradient id="paint11_linear_1137_10715" x1="45.5121" y1="49.7426" x2="42.5904" y2="50.2466" gradientUnits="userSpaceOnUse">
<stop stop-color="#B37CFF"/>
<stop offset="1" stop-color="#F895E7"/>
</linearGradient>
<linearGradient id="paint12_linear_1137_10715" x1="67.932" y1="29.5573" x2="194.258" y2="-134.443" gradientUnits="userSpaceOnUse">
<stop stop-color="#CB236D"/>
<stop offset="1" stop-color="#4C246D"/>
</linearGradient>
<linearGradient id="paint13_linear_1137_10715" x1="253.313" y1="101.119" x2="186.349" y2="202.283" gradientUnits="userSpaceOnUse">
<stop stop-color="#53D8FF"/>
<stop offset="1" stop-color="#3840F7"/>
</linearGradient>
<linearGradient id="paint14_linear_1137_10715" x1="244.055" y1="111.244" x2="211.41" y2="156.804" gradientUnits="userSpaceOnUse">
<stop stop-color="#53D8FF"/>
<stop offset="1" stop-color="#3840F7"/>
</linearGradient>
<linearGradient id="paint15_linear_1137_10715" x1="248.787" y1="114.632" x2="216.141" y2="160.192" gradientUnits="userSpaceOnUse">
<stop stop-color="#53D8FF"/>
<stop offset="1" stop-color="#3840F7"/>
</linearGradient>
<linearGradient id="paint16_linear_1137_10715" x1="236.664" y1="129.377" x2="169.699" y2="230.541" gradientUnits="userSpaceOnUse">
<stop stop-color="#53D8FF"/>
<stop offset="1" stop-color="#3840F7"/>
</linearGradient>
<linearGradient id="paint17_linear_1137_10715" x1="227.406" y1="139.498" x2="194.76" y2="185.058" gradientUnits="userSpaceOnUse">
<stop stop-color="#53D8FF"/>
<stop offset="1" stop-color="#3840F7"/>
</linearGradient>
<linearGradient id="paint18_linear_1137_10715" x1="232.137" y1="142.89" x2="199.492" y2="188.45" gradientUnits="userSpaceOnUse">
<stop stop-color="#53D8FF"/>
<stop offset="1" stop-color="#3840F7"/>
</linearGradient>
<linearGradient id="paint19_linear_1137_10715" x1="269.876" y1="129.377" x2="202.911" y2="230.541" gradientUnits="userSpaceOnUse">
<stop stop-color="#53D8FF"/>
<stop offset="1" stop-color="#3840F7"/>
</linearGradient>
<linearGradient id="paint20_linear_1137_10715" x1="260.617" y1="139.498" x2="227.972" y2="185.058" gradientUnits="userSpaceOnUse">
<stop stop-color="#53D8FF"/>
<stop offset="1" stop-color="#3840F7"/>
</linearGradient>
<linearGradient id="paint21_linear_1137_10715" x1="265.35" y1="142.89" x2="232.705" y2="188.45" gradientUnits="userSpaceOnUse">
<stop stop-color="#53D8FF"/>
<stop offset="1" stop-color="#3840F7"/>
</linearGradient>
<linearGradient id="paint22_linear_1137_10715" x1="180.584" y1="161.323" x2="269.868" y2="52.9058" gradientUnits="userSpaceOnUse">
<stop stop-color="#2B3582"/>
<stop offset="1" stop-color="#150E42"/>
</linearGradient>
<linearGradient id="paint23_linear_1137_10715" x1="167.887" y1="134.687" x2="162.785" y2="207.328" gradientUnits="userSpaceOnUse">
<stop stop-color="#53D8FF"/>
<stop offset="1" stop-color="#3840F7"/>
</linearGradient>
<linearGradient id="paint24_linear_1137_10715" x1="168.575" y1="134.737" x2="163.472" y2="207.376" gradientUnits="userSpaceOnUse">
<stop stop-color="#53D8FF"/>
<stop offset="1" stop-color="#3840F7"/>
</linearGradient>
<linearGradient id="paint25_linear_1137_10715" x1="167.891" y1="134.688" x2="162.788" y2="207.328" gradientUnits="userSpaceOnUse">
<stop stop-color="#53D8FF"/>
<stop offset="1" stop-color="#3840F7"/>
</linearGradient>
<linearGradient id="paint26_linear_1137_10715" x1="168.543" y1="134.736" x2="163.44" y2="207.375" gradientUnits="userSpaceOnUse">
<stop stop-color="#53D8FF"/>
<stop offset="1" stop-color="#3840F7"/>
</linearGradient>
<linearGradient id="paint27_linear_1137_10715" x1="167.203" y1="59.9517" x2="159.129" y2="222.439" gradientUnits="userSpaceOnUse">
<stop stop-color="#FDF53F"/>
<stop offset="1" stop-color="#D93C65"/>
</linearGradient>
<linearGradient id="paint28_linear_1137_10715" x1="177.01" y1="117.206" x2="179.596" y2="256.519" gradientUnits="userSpaceOnUse">
<stop stop-color="#FDF53F"/>
<stop offset="1" stop-color="#D93C65"/>
</linearGradient>
<linearGradient id="paint29_linear_1137_10715" x1="152.857" y1="117.658" x2="155.443" y2="256.97" gradientUnits="userSpaceOnUse">
<stop stop-color="#FDF53F"/>
<stop offset="1" stop-color="#D93C65"/>
</linearGradient>
<linearGradient id="paint30_linear_1137_10715" x1="96.1851" y1="27.8685" x2="70.1316" y2="224.355" gradientUnits="userSpaceOnUse">
<stop stop-color="#53D8FF"/>
<stop offset="1" stop-color="#3840F7"/>
</linearGradient>
<linearGradient id="paint31_linear_1137_10715" x1="141.983" y1="-25.3269" x2="41.3638" y2="166.272" gradientUnits="userSpaceOnUse">
<stop stop-color="#53D8FF"/>
<stop offset="1" stop-color="#3840F7"/>
</linearGradient>
<linearGradient id="paint32_linear_1137_10715" x1="45.6384" y1="91.054" x2="45.0842" y2="142.034" gradientUnits="userSpaceOnUse">
<stop stop-color="#A737D5"/>
<stop offset="1" stop-color="#EF497A"/>
</linearGradient>
<linearGradient id="paint33_linear_1137_10715" x1="54.9239" y1="105.745" x2="54.5675" y2="138.528" gradientUnits="userSpaceOnUse">
<stop stop-color="#A737D5"/>
<stop offset="1" stop-color="#EF497A"/>
</linearGradient>
<linearGradient id="paint34_linear_1137_10715" x1="63.9303" y1="101.699" x2="63.5188" y2="139.556" gradientUnits="userSpaceOnUse">
<stop stop-color="#A737D5"/>
<stop offset="1" stop-color="#EF497A"/>
</linearGradient>
<linearGradient id="paint35_linear_1137_10715" x1="74.3774" y1="9.27504" x2="72.7132" y2="162.363" gradientUnits="userSpaceOnUse">
<stop stop-color="#A737D5"/>
<stop offset="1" stop-color="#EF497A"/>
</linearGradient>
<linearGradient id="paint36_linear_1137_10715" x1="83.1032" y1="56.7023" x2="82.0803" y2="150.801" gradientUnits="userSpaceOnUse">
<stop stop-color="#A737D5"/>
<stop offset="1" stop-color="#EF497A"/>
</linearGradient>
<linearGradient id="paint37_linear_1137_10715" x1="92.5566" y1="55.4155" x2="91.515" y2="151.239" gradientUnits="userSpaceOnUse">
<stop stop-color="#A737D5"/>
<stop offset="1" stop-color="#EF497A"/>
</linearGradient>
<linearGradient id="paint38_linear_1137_10715" x1="102.331" y1="21.7046" x2="100.829" y2="159.82" gradientUnits="userSpaceOnUse">
<stop stop-color="#A737D5"/>
<stop offset="1" stop-color="#EF497A"/>
</linearGradient>
<linearGradient id="paint39_linear_1137_10715" x1="111.379" y1="57.9758" x2="110.37" y2="150.835" gradientUnits="userSpaceOnUse">
<stop stop-color="#A737D5"/>
<stop offset="1" stop-color="#EF497A"/>
</linearGradient>
<linearGradient id="paint40_linear_1137_10715" x1="120.847" y1="36.0627" x2="119.537" y2="156.518" gradientUnits="userSpaceOnUse">
<stop stop-color="#A737D5"/>
<stop offset="1" stop-color="#EF497A"/>
</linearGradient>
<linearGradient id="paint41_linear_1137_10715" x1="130.563" y1="10.4835" x2="128.903" y2="163.214" gradientUnits="userSpaceOnUse">
<stop stop-color="#A737D5"/>
<stop offset="1" stop-color="#EF497A"/>
</linearGradient>
<linearGradient id="paint42_linear_1137_10715" x1="89.8029" y1="89.1287" x2="82.2008" y2="108.198" gradientUnits="userSpaceOnUse">
<stop stop-color="#2B3582"/>
<stop offset="1" stop-color="#150E42"/>
</linearGradient>
<linearGradient id="paint43_linear_1137_10715" x1="107.678" y1="103.66" x2="87.2192" y2="131.94" gradientUnits="userSpaceOnUse">
<stop stop-color="#F9B776"/>
<stop offset="1" stop-color="#F47960"/>
</linearGradient>
<linearGradient id="paint44_linear_1137_10715" x1="62.0128" y1="211.216" x2="55.5664" y2="211.216" gradientUnits="userSpaceOnUse">
<stop stop-color="#A737D5"/>
<stop offset="1" stop-color="#EF497A"/>
</linearGradient>
<linearGradient id="paint45_linear_1137_10715" x1="89.2517" y1="236.636" x2="79.9751" y2="128.215" gradientUnits="userSpaceOnUse">
<stop stop-color="#F9B776"/>
<stop offset="1" stop-color="#F47960"/>
</linearGradient>
<linearGradient id="paint46_linear_1137_10715" x1="91.9618" y1="210.036" x2="81.5312" y2="210.036" gradientUnits="userSpaceOnUse">
<stop stop-color="#A737D5"/>
<stop offset="1" stop-color="#EF497A"/>
</linearGradient>
<linearGradient id="paint47_linear_1137_10715" x1="70.5911" y1="238.248" x2="61.3119" y2="129.798" gradientUnits="userSpaceOnUse">
<stop stop-color="#F9B776"/>
<stop offset="1" stop-color="#F47960"/>
</linearGradient>
<linearGradient id="paint48_linear_1137_10715" x1="89.0229" y1="127.3" x2="84.3843" y2="170.336" gradientUnits="userSpaceOnUse">
<stop stop-color="#FDF53F"/>
<stop offset="1" stop-color="#D93C65"/>
</linearGradient>
<linearGradient id="paint49_linear_1137_10715" x1="63.4711" y1="129.409" x2="86.6642" y2="166.518" gradientUnits="userSpaceOnUse">
<stop stop-color="#53D8FF"/>
<stop offset="1" stop-color="#3840F7"/>
</linearGradient>
<linearGradient id="paint50_linear_1137_10715" x1="90.269" y1="129.765" x2="88.5264" y2="117.017" gradientUnits="userSpaceOnUse">
<stop stop-color="#F9B776"/>
<stop offset="1" stop-color="#F47960"/>
</linearGradient>
<linearGradient id="paint51_linear_1137_10715" x1="93.3721" y1="114.411" x2="83.7152" y2="84.9136" gradientUnits="userSpaceOnUse">
<stop stop-color="#F9B776"/>
<stop offset="1" stop-color="#F47960"/>
</linearGradient>
<linearGradient id="paint52_linear_1137_10715" x1="94.7428" y1="90.6618" x2="83.5803" y2="107.891" gradientUnits="userSpaceOnUse">
<stop stop-color="#2B3582"/>
<stop offset="1" stop-color="#150E42"/>
</linearGradient>
<linearGradient id="paint53_linear_1137_10715" x1="89.8441" y1="115.565" x2="80.1876" y2="86.0684" gradientUnits="userSpaceOnUse">
<stop stop-color="#F9B776"/>
<stop offset="1" stop-color="#F47960"/>
</linearGradient>
<linearGradient id="paint54_linear_1137_10715" x1="110.135" y1="105.438" x2="89.6754" y2="133.719" gradientUnits="userSpaceOnUse">
<stop stop-color="#F9B776"/>
<stop offset="1" stop-color="#F47960"/>
</linearGradient>
<linearGradient id="paint55_linear_1137_10715" x1="115.781" y1="95.1255" x2="119.563" y2="95.1255" gradientUnits="userSpaceOnUse">
<stop stop-color="#F9B776"/>
<stop offset="1" stop-color="#F47960"/>
</linearGradient>
<linearGradient id="paint56_linear_1137_10715" x1="82.8186" y1="142.404" x2="99.2847" y2="147.805" gradientUnits="userSpaceOnUse">
<stop stop-color="#2B3582"/>
<stop offset="1" stop-color="#150E42"/>
</linearGradient>
<linearGradient id="paint57_linear_1137_10715" x1="105.482" y1="131.739" x2="117.271" y2="144.199" gradientUnits="userSpaceOnUse">
<stop stop-color="#2B3582"/>
<stop offset="1" stop-color="#150E42"/>
</linearGradient>
<linearGradient id="paint58_linear_1137_10715" x1="112.631" y1="134.853" x2="117.959" y2="142.877" gradientUnits="userSpaceOnUse">
<stop stop-color="#53D8FF"/>
<stop offset="1" stop-color="#3840F7"/>
</linearGradient>
<linearGradient id="paint59_linear_1137_10715" x1="58.2544" y1="146.251" x2="94.6992" y2="131.005" gradientUnits="userSpaceOnUse">
<stop stop-color="#F9B776"/>
<stop offset="1" stop-color="#F47960"/>
</linearGradient>
<linearGradient id="paint60_linear_1137_10715" x1="239.262" y1="27.1401" x2="148.177" y2="148.071" gradientUnits="userSpaceOnUse">
<stop stop-color="#53D8FF"/>
<stop offset="1" stop-color="#3840F7"/>
</linearGradient>
<linearGradient id="paint61_linear_1137_10715" x1="239.262" y1="27.1381" x2="148.177" y2="148.069" gradientUnits="userSpaceOnUse">
<stop stop-color="#53D8FF"/>
<stop offset="1" stop-color="#3840F7"/>
</linearGradient>
<linearGradient id="paint62_linear_1137_10715" x1="239.262" y1="27.1399" x2="148.176" y2="148.07" gradientUnits="userSpaceOnUse">
<stop stop-color="#53D8FF"/>
<stop offset="1" stop-color="#3840F7"/>
</linearGradient>
<linearGradient id="paint63_linear_1137_10715" x1="190.411" y1="69.8943" x2="242.148" y2="38.5966" gradientUnits="userSpaceOnUse">
<stop stop-color="#2B3582"/>
<stop offset="1" stop-color="#150E42"/>
</linearGradient>
<linearGradient id="paint64_linear_1137_10715" x1="207.852" y1="69.8824" x2="244.475" y2="39.5053" gradientUnits="userSpaceOnUse">
<stop stop-color="#FDF53F"/>
<stop offset="1" stop-color="#D93C65"/>
</linearGradient>
<linearGradient id="paint65_linear_1137_10715" x1="256.544" y1="26.5807" x2="306.474" y2="-14.835" gradientUnits="userSpaceOnUse">
<stop stop-color="#FDF53F"/>
<stop offset="1" stop-color="#D93C65"/>
</linearGradient>
<linearGradient id="paint66_linear_1137_10715" x1="252.499" y1="22.5354" x2="293.914" y2="-27.3952" gradientUnits="userSpaceOnUse">
<stop stop-color="#FDF53F"/>
<stop offset="1" stop-color="#D93C65"/>
</linearGradient>
</defs>
</svg>
