<svg width="20" height="14" viewBox="0 0 20 14" fill="none" xmlns="http://www.w3.org/2000/svg">
<path d="M18.3667 1.23861C17.8527 0.847229 17.2346 0.535655 16.5498 0.322752C15.865 0.109849 15.1278 4.85351e-05 14.3829 1.60868e-08C13.6379 -4.85029e-05 12.9007 0.109656 12.2158 0.32247C11.531 0.535283 10.9128 0.846777 10.3987 1.23809L10 1.53763L9.60206 1.23861C9.08797 0.847188 8.46977 0.535591 7.78489 0.322689C7.10002 0.109787 6.36272 1.06568e-05 5.61768 1.06568e-05C4.87264 1.06568e-05 4.13534 0.109787 3.45047 0.322689C2.76559 0.535591 2.14739 0.847188 1.6333 1.23861C0.584689 2.03965 0 3.10242 0 4.2074C0 5.31238 0.584689 6.37515 1.6333 7.17619L9.48524 13.0789C9.55193 13.129 9.63187 13.169 9.72028 13.1962C9.8087 13.2235 9.90378 13.2375 9.99984 13.2375C10.0959 13.2375 10.191 13.2235 10.2794 13.1962C10.3678 13.169 10.4478 13.129 10.5144 13.0789L18.3666 7.17624C19.4152 6.37521 20 5.31244 20 4.20745C20 3.10246 19.4153 2.03967 18.3667 1.23861Z" fill="#00E0CF"/>
</svg>
