<svg width="30" height="38" viewBox="0 0 30 38" fill="none" xmlns="http://www.w3.org/2000/svg">
<path d="M24.9413 5.17746C22.5321 2.86464 19.1979 1.59082 15.5532 1.59082C9.9857 1.59082 6.56142 3.87302 4.66922 5.78743C2.33719 8.14674 1 11.2795 1 14.3825C1 18.2785 2.62963 21.2688 5.35863 22.3813C5.54183 22.4564 5.7262 22.4942 5.90694 22.4942C6.48267 22.4942 6.93883 22.1174 7.09688 21.5132C7.18903 21.1666 7.40245 20.3113 7.49528 19.94C7.69394 19.2069 7.53343 18.8542 7.10016 18.3436C6.31088 17.4097 5.94331 16.3054 5.94331 14.8681C5.94331 10.5989 9.12218 6.06176 15.0139 6.06176C19.6888 6.06176 22.5927 8.71877 22.5927 12.9958C22.5927 15.6948 22.0114 18.1943 20.9554 20.0342C20.2216 21.3126 18.9313 22.8366 16.9505 22.8366C16.094 22.8366 15.3245 22.4847 14.839 21.8713C14.3804 21.2914 14.2292 20.5423 14.4137 19.7616C14.6221 18.8794 14.9062 17.9593 15.1813 17.0698C15.6828 15.4452 16.157 13.9107 16.157 12.6865C16.157 10.5925 14.8696 9.1854 12.9538 9.1854C10.5191 9.1854 8.61167 11.6582 8.61167 14.8151C8.61167 16.3633 9.02313 17.5213 9.20941 17.966C8.90268 19.2655 7.07979 26.9915 6.73403 28.4484C6.53408 29.2989 5.32971 36.0162 7.32315 36.5518C9.5629 37.1535 11.565 30.6114 11.7687 29.8721C11.9339 29.2709 12.5117 26.9975 12.8658 25.6C13.9471 26.6414 15.688 27.3455 17.382 27.3455C20.5754 27.3455 23.4473 25.9085 25.4688 23.2994C27.4293 20.7687 28.509 17.2415 28.509 13.3679C28.5089 10.3397 27.2084 7.35431 24.9413 5.17746Z" stroke="white" stroke-width="2"/>
</svg>
