<svg width="39" height="33" viewBox="0 0 39 33" fill="none" xmlns="http://www.w3.org/2000/svg">
<path d="M38 1.01886C36.3895 2.1549 34.6063 3.02378 32.7191 3.59205C31.7062 2.42741 30.3601 1.60194 28.8627 1.22729C27.3654 0.852635 25.7892 0.946876 24.3471 1.49726C22.9051 2.04765 21.6669 3.02763 20.8 4.30466C19.9331 5.58169 19.4793 7.09416 19.5 8.6375V10.3193C16.5444 10.396 13.6158 9.74046 10.9749 8.41121C8.33398 7.08195 6.06281 5.12021 4.36364 2.70068C4.36364 2.70068 -2.36364 17.837 12.7727 24.5643C9.30907 26.9154 5.18295 28.0943 1 27.928C16.1364 36.3371 34.6364 27.928 34.6364 8.58705C34.6348 8.11858 34.5898 7.65128 34.5018 7.19114C36.2183 5.49838 37.4296 3.36116 38 1.01886V1.01886Z" stroke="white" stroke-width="2" stroke-linecap="round" stroke-linejoin="round"/>
</svg>
