<svg width="32" height="33" viewBox="0 0 32 33" fill="none" xmlns="http://www.w3.org/2000/svg">
<path d="M23.5 1.09082H8.5C4.35786 1.09082 1 4.44868 1 8.59082V23.5908C1 27.733 4.35786 31.0908 8.5 31.0908H23.5C27.6421 31.0908 31 27.733 31 23.5908V8.59082C31 4.44868 27.6421 1.09082 23.5 1.09082Z" stroke="white" stroke-width="2" stroke-linecap="round" stroke-linejoin="round"/>
<path d="M21.9997 15.1458C22.1848 16.3942 21.9716 17.6691 21.3903 18.7893C20.8091 19.9095 19.8894 20.8179 18.7621 21.3853C17.6348 21.9527 16.3574 22.1502 15.1114 21.9497C13.8654 21.7492 12.7143 21.1609 11.8219 20.2685C10.9296 19.3761 10.3413 18.2251 10.1408 16.9791C9.94029 15.7331 10.1378 14.4556 10.7052 13.3283C11.2726 12.2011 12.181 11.2814 13.3012 10.7001C14.4214 10.1189 15.6963 9.90567 16.9447 10.0908C18.2181 10.2796 19.397 10.873 20.3072 11.7832C21.2175 12.6935 21.8109 13.8724 21.9997 15.1458Z" stroke="white" stroke-width="2" stroke-linecap="round" stroke-linejoin="round"/>
<path d="M24.2502 7.8418H24.2602" stroke="white" stroke-width="2" stroke-linecap="round" stroke-linejoin="round"/>
</svg>
