<svg width="24" height="24" viewBox="0 0 24 24" fill="none" xmlns="http://www.w3.org/2000/svg">
<path d="M16.7708 16.0639C17.8138 16.4531 18.8972 16.7237 20.0007 16.8706C20.0003 16.8871 20.0001 16.9036 20.0001 16.9201L20 19.9201L20.0001 19.9278C17.2468 19.623 14.6027 18.6794 12.2783 17.1721L12.2627 17.1621C10.0943 15.7842 8.25595 13.9458 6.87808 11.7775L6.86861 11.7627C5.35508 9.42633 4.41103 6.7675 4.11221 4.0001H7.11005L7.12966 4C7.27657 5.10326 7.54714 6.18651 7.93626 7.22931L7.93625 7.22931L7.93794 7.23379L6.67584 8.49588C6.03922 9.13251 5.90644 10.116 6.35147 10.8987C7.95297 13.7152 10.285 16.0472 13.1015 17.6487C13.8841 18.0937 14.8676 17.9609 15.5043 17.3243L16.7664 16.0622L16.7708 16.0639Z" stroke="white" stroke-width="4" stroke-linecap="round" stroke-linejoin="round"/>
</svg>
